<?xml version="1.0" encoding="UTF-8"?>
<svg version="1.1" xmlns="http://www.w3.org/2000/svg" width="372" height="372">
<path d="M0 0 C122.76 0 245.52 0 372 0 C372 122.76 372 245.52 372 372 C249.24 372 126.48 372 0 372 C0 249.24 0 126.48 0 0 Z " fill="#FEFEFE" transform="translate(0,0)"/>
<path d="M0 0 C6.00596531 -0.39225255 8.81341234 -0.12618901 13.625 3.8125 C17.27864575 6.75363126 20.7383706 9.01915466 25 11 C25.87436418 9.26424351 25.87436418 9.26424351 26 7 C24.10770734 4.36375566 24.10770734 4.36375566 22 2 C22 1.34 22 0.68 22 0 C44.11 0 66.22 0 89 0 C91 5 91 5 91 9 C91.66 9 92.32 9 93 9 C93.33 7.68 93.66 6.36 94 5 C95.65 5.66 97.3 6.32 99 7 C99.144375 6.21625 99.28875 5.4325 99.4375 4.625 C100 2 100 2 101 0 C127.73 0 154.46 0 182 0 C180 4 180 4 178 7 C177.34 7 176.68 7 176 7 C175.77054688 7.556875 175.54109375 8.11375 175.3046875 8.6875 C173.64306841 11.63264521 171.54629099 13.64337256 169.125 16 C167.82949219 17.2684375 167.82949219 17.2684375 166.5078125 18.5625 C165.26644531 19.7690625 165.26644531 19.7690625 164 21 C162.66442011 22.33108299 161.33023617 23.66357668 160 25 C160.66 25 161.32 25 162 25 C164.0625 25.375 164.0625 25.375 166 26 C166.33 26.66 166.66 27.32 167 28 C167.62003906 27.30777344 168.24007812 26.61554688 168.87890625 25.90234375 C174.46727232 19.72829739 180.18214969 13.70989275 186.0625 7.8125 C186.71742432 7.15306396 187.37234863 6.49362793 188.04711914 5.81420898 C188.66192139 5.20134033 189.27672363 4.58847168 189.91015625 3.95703125 C190.45808838 3.41022705 191.00602051 2.86342285 191.57055664 2.30004883 C194.87045075 -0.70113582 198.4272692 -0.11246246 202.625 -0.0625 C206.275625 -0.0315625 206.275625 -0.0315625 210 0 C210 5.28 210 10.56 210 16 C201.8745049 20.72437938 193.74483398 25.22599346 185.1875 29.125 C171.08484085 35.15347924 171.08484085 35.15347924 161 46 C167.57591851 43.88233133 173.69053435 41.22979772 179.8125 38.0625 C186.1150755 34.80882927 192.36913033 32.24933573 199.109375 30.0078125 C201.9350177 29.12284762 201.9350177 29.12284762 204.078125 27.8046875 C206.66653672 26.72092162 208.31870397 27.38001218 211 28 C211.06944095 35.39727248 211.12278091 42.79447494 211.15543652 50.19200706 C211.17110785 53.62681954 211.19237214 57.06140941 211.22631836 60.49609375 C211.2650808 64.44268144 211.27969712 68.38917828 211.29296875 72.3359375 C211.30845261 73.57242035 211.32393646 74.8089032 211.33988953 76.08285522 C211.34022942 77.79440292 211.34022942 77.79440292 211.34057617 79.54052734 C211.35056892 81.05276382 211.35056892 81.05276382 211.36076355 82.59555054 C211.24171158 83.38901886 211.12265961 84.18248718 211 85 C207.55549263 87.29633824 205.06187717 87.54016485 201 88 C203.33285443 91.49928164 204.20795069 91.6329098 208.125 92.6875 C209.03507813 92.93886719 209.94515625 93.19023437 210.8828125 93.44921875 C211.58148438 93.63097656 212.28015625 93.81273437 213 94 C212.01 94.495 212.01 94.495 211 95 C211 122.39 211 149.78 211 178 C210.01 178 209.02 178 208 178 C208 178.99 208 179.98 208 181 C208.66 181.33 209.32 181.66 210 182 C208.68 182 207.36 182 206 182 C206 184.31 206 186.62 206 189 C204.35 189 202.7 189 201 189 C202.86721161 193.71716617 205.00960715 197.74710359 207.9140625 201.91015625 C209.28739096 204.55307253 209.55883289 207.07060054 210 210 C205.42872198 210.19886761 200.8599965 210.34341878 196.28540039 210.43945312 C194.73221961 210.47950603 193.17933715 210.53397031 191.62719727 210.60351562 C178.77021409 211.1648478 178.77021409 211.1648478 174.51342773 208.36376953 C172.7200686 206.33474997 171.35039943 204.34197452 170 202 C169.31292969 201.11054688 168.62585938 200.22109375 167.91796875 199.3046875 C167.34691406 198.50289062 166.77585938 197.70109375 166.1875 196.875 C165.18203125 195.46541016 165.18203125 195.46541016 164.15625 194.02734375 C163.4446875 193.02832031 162.733125 192.02929688 162 191 C161.2265625 189.94941406 160.453125 188.89882813 159.65625 187.81640625 C151.8261801 177.14472824 144.75329201 165.97169709 138.4453125 154.33203125 C138.04256104 153.59259277 137.63980957 152.8531543 137.22485352 152.09130859 C136.46770539 150.68833428 135.72271974 149.27870599 134.99194336 147.86181641 C133.10680209 144.20554263 133.10680209 144.20554263 129.74609375 142.06640625 C128.88177734 142.03353516 128.88177734 142.03353516 128 142 C130.01090142 145.39219153 132.09385094 148.73204516 134.20898438 152.06005859 C140.82509746 162.50752174 146.93866932 173.22385706 153 184 C153.48629883 184.86141602 153.97259766 185.72283203 154.47363281 186.61035156 C155.86168496 189.07120333 157.24456664 191.53486771 158.625 194 C159.03878906 194.73524902 159.45257813 195.47049805 159.87890625 196.22802734 C165 205.42918442 165 205.42918442 165 210 C132.66 210 100.32 210 67 210 C66.67 209.01 66.34 208.02 66 207 C65.34 207 64.68 207 64 207 C63.67 199.74 63.34 192.48 63 185 C62.34 185 61.68 185 61 185 C60.72325439 185.57967529 60.44650879 186.15935059 60.16137695 186.7565918 C58.8891861 189.40555526 57.60103873 192.04645254 56.3125 194.6875 C55.65991211 196.05551758 55.65991211 196.05551758 54.99414062 197.45117188 C54.55908203 198.33740234 54.12402344 199.22363281 53.67578125 200.13671875 C53.28302002 200.94842529 52.89025879 201.76013184 52.4855957 202.59643555 C50.53106519 205.75869569 49.01489772 207.75653825 46 210 C42.47406828 210.67901829 39.02840192 210.58249495 35.44921875 210.48828125 C34.43527542 210.48120651 33.42133209 210.47413177 32.37666321 210.46684265 C29.1461837 210.43891012 25.91745339 210.37617162 22.6875 210.3125 C20.4941657 210.28741575 18.30080416 210.26460281 16.10742188 210.24414062 C10.73768698 210.18908755 5.36896846 210.10547273 0 210 C-1.02533847 183.00993665 -1.02533847 183.00993665 5 172 C6.96707076 168.34589287 7.5221855 165.141059 8 161 C6.68 161 5.36 161 4 161 C4.33 158.03 4.66 155.06 5 152 C5.99 151.67 6.98 151.34 8 151 C8 150.01 8 149.02 8 148 C5.36 148 2.72 148 0 148 C0 132.49 0 116.98 0 101 C3.63 100.01 7.26 99.02 11 98 C11.495 97.01 11.495 97.01 12 96 C11.30132812 95.80664062 10.60265625 95.61328125 9.8828125 95.4140625 C8.97273438 95.15367187 8.06265625 94.89328125 7.125 94.625 C5.76761719 94.24214844 5.76761719 94.24214844 4.3828125 93.8515625 C2 93 2 93 0 91 C-0.22705078 88.20263672 -0.22705078 88.20263672 -0.1953125 84.6796875 C-0.18886719 83.42285156 -0.18242188 82.16601562 -0.17578125 80.87109375 C-0.15902344 79.55238281 -0.14226562 78.23367187 -0.125 76.875 C-0.11496983 75.53516279 -0.10584404 74.19531848 -0.09765625 72.85546875 C-0.07402075 69.57013427 -0.04107234 66.28515535 0 63 C5.445 62.505 5.445 62.505 11 62 C10.67 61.34 10.34 60.68 10 60 C10.99 59.505 10.99 59.505 12 59 C9.8702019 57.34349037 7.76918828 55.8648907 5.4375 54.5 C3.14812963 53.0911567 1.64919541 52.0995923 0 50 C-0.34057617 47.5480957 -0.34057617 47.5480957 -0.29296875 44.67578125 C-0.2784668 43.13374023 -0.2784668 43.13374023 -0.26367188 41.56054688 C-0.23853516 40.48869141 -0.21339844 39.41683594 -0.1875 38.3125 C-0.16719727 36.68731445 -0.16719727 36.68731445 -0.14648438 35.02929688 C-0.11110643 32.35236595 -0.06174189 29.67643162 0 27 C5.62395137 27.48482339 9.42314952 29.68053224 14.125 32.5625 C14.87056152 33.01069092 15.61612305 33.45888184 16.38427734 33.9206543 C24.14968241 38.62445704 31.72001329 43.5947342 39.0625 48.9375 C41.86382915 51.11368603 41.86382915 51.11368603 45 52 C45 51.01 45 50.02 45 49 C44.27039063 48.72994141 43.54078125 48.45988281 42.7890625 48.18164062 C40.07619538 47.03228166 37.82461714 45.72204902 35.375 44.09375 C34.07671265 43.23221313 34.07671265 43.23221313 32.75219727 42.35327148 C31.84397217 41.74169189 30.93574707 41.1301123 30 40.5 C29.06534912 39.87359619 28.13069824 39.24719238 27.16772461 38.60180664 C19.87851135 33.67751296 12.83165189 28.54266097 6 23 C4.90300781 22.27554688 3.80601563 21.55109375 2.67578125 20.8046875 C-0.15816203 17.83421848 -0.40176868 17.40820615 -0.5859375 13.57421875 C-0.54634376 11.94427649 -0.47518366 10.31484221 -0.375 8.6875 C-0.34792969 7.85154297 -0.32085937 7.01558594 -0.29296875 6.15429688 C-0.22259563 4.10174753 -0.11498322 2.05053409 0 0 Z " fill="#F9F9F9" transform="translate(74,81)"/>
<path d="M0 0 C2.64546016 1.24865719 5.12256195 2.64338463 7.62890625 4.15234375 C8.57894531 4.72210938 9.52898437 5.291875 10.5078125 5.87890625 C17.27862323 10.16914617 23.09473644 15.06169732 28.8828125 20.5546875 C31.14793162 22.69736775 33.4457912 24.75410595 35.81640625 26.77734375 C42.9876051 33.01122823 49.55051572 39.85590998 55.62890625 47.15234375 C56.2926123 47.94535889 56.2926123 47.94535889 56.96972656 48.75439453 C75.07601629 70.49986922 75.07601629 70.49986922 76.62890625 81.15234375 C72.05762823 81.35121136 67.48890275 81.49576253 62.91430664 81.59179688 C61.36112586 81.63184978 59.8082434 81.68631406 58.25610352 81.75585938 C45.39912034 82.31719155 45.39912034 82.31719155 41.14233398 79.51611328 C39.34897485 77.48709372 37.97930568 75.49431827 36.62890625 73.15234375 C35.59830078 71.81816406 35.59830078 71.81816406 34.546875 70.45703125 C33.69029297 69.25433594 33.69029297 69.25433594 32.81640625 68.02734375 C32.14609375 67.08761719 31.47578125 66.14789063 30.78515625 65.1796875 C29.7178125 63.68115234 29.7178125 63.68115234 28.62890625 62.15234375 C27.85546875 61.10175781 27.08203125 60.05117188 26.28515625 58.96875 C18.45508635 48.29707199 11.38219826 37.12404084 5.07421875 25.484375 C4.67146729 24.74493652 4.26871582 24.00549805 3.85375977 23.24365234 C3.09661164 21.84067803 2.35162599 20.43104974 1.62084961 19.01416016 C-0.26429166 15.35788638 -0.26429166 15.35788638 -3.625 13.21875 C-4.20121094 13.19683594 -4.77742188 13.17492187 -5.37109375 13.15234375 C-3.36019233 16.54453528 -1.27724281 19.88438891 0.83789062 23.21240234 C7.45400371 33.65986549 13.56757557 44.37620081 19.62890625 55.15234375 C20.11520508 56.01375977 20.60150391 56.87517578 21.10253906 57.76269531 C22.49059121 60.22354708 23.87347289 62.68721146 25.25390625 65.15234375 C25.66769531 65.88759277 26.08148438 66.6228418 26.5078125 67.38037109 C31.62890625 76.58152817 31.62890625 76.58152817 31.62890625 81.15234375 C-0.71109375 81.15234375 -33.05109375 81.15234375 -66.37109375 81.15234375 C-66.70109375 80.16234375 -67.03109375 79.17234375 -67.37109375 78.15234375 C-68.03109375 78.15234375 -68.69109375 78.15234375 -69.37109375 78.15234375 C-69.76916334 67.06536856 -68.8663427 56.95629691 -66.37109375 46.15234375 C-66.22124023 45.49234375 -66.07138672 44.83234375 -65.91699219 44.15234375 C-64.83717167 39.45707321 -63.64564039 34.7983804 -62.37109375 30.15234375 C-62.18289062 29.46575684 -61.9946875 28.77916992 -61.80078125 28.07177734 C-56.7029567 9.8428064 -56.7029567 9.8428064 -51.37109375 3.15234375 C-48.43217697 1.63696478 -46.69129409 1.15234375 -43.37109375 1.15234375 C-43.37109375 1.81234375 -43.37109375 2.47234375 -43.37109375 3.15234375 C-44.36109375 3.64734375 -44.36109375 3.64734375 -45.37109375 4.15234375 C-45.70109375 5.14234375 -46.03109375 6.13234375 -46.37109375 7.15234375 C-35.07097281 6.79883403 -25.44878202 6.49384782 -15.37109375 0.96484375 C-10.17705616 -1.68349953 -5.51144595 -1.97031923 0 0 Z " fill="#06090A" transform="translate(207.37109375,209.84765625)"/>
<path d="M0 0 C2.34927818 2.43234876 2.34218503 4.21150635 2.36834717 7.51390076 C2.35396606 8.26987549 2.33958496 9.02585022 2.32476807 9.80473328 C2.32535217 10.60496414 2.32593628 11.40519501 2.32653809 12.22967529 C2.32375026 14.87598479 2.29262636 17.52116929 2.2612915 20.1672821 C2.25383157 22.00144841 2.24813747 23.83562268 2.24414062 25.6697998 C2.22886474 30.49838754 2.18956617 35.32649432 2.14532471 40.15489197 C2.10441409 45.08148187 2.08613862 50.00814945 2.065979 54.93486023 C2.02307374 64.6023893 1.95479882 74.26956134 1.8706665 83.93681335 C-20.18346772 75.31585913 -40.14493474 56.02990256 -57.1293335 39.93681335 C-58.4577124 38.68964539 -58.4577124 38.68964539 -59.81292725 37.4172821 C-64.13344928 33.25283805 -67.8107003 29.52261151 -70.1293335 23.93681335 C-70.1293335 19.43330932 -68.33728816 16.40939515 -66.25042725 12.5032196 C-63.80925966 6.91490217 -62.57577427 0.84567779 -61.1293335 -5.06318665 C-42.20045973 -7.30422088 -17.55917685 -8.76738302 0 0 Z " fill="#05090A" transform="translate(282.12933349609375,174.0631866455078)"/>
<path d="M0 0 C1.68477344 1.31037934 3.34808509 2.64843325 5 4 C7.95404685 5.7534983 10.9669568 7.38766331 14 9 C13.90951334 10.43842591 13.8014574 11.87574301 13.6875 13.3125 C13.62949219 14.11300781 13.57148438 14.91351563 13.51171875 15.73828125 C12.90253484 19.62124742 11.88112352 23.30431045 10.81811523 27.08520508 C10.04928428 29.82440913 9.32037303 32.57052283 8.60546875 35.32421875 C4.8637493 49.56608924 0.72879531 63.17489584 -6.125 76.25 C-6.44968262 76.87060303 -6.77436523 77.49120605 -7.10888672 78.13061523 C-9.05228371 81.68824574 -10.70833292 84.62152145 -14 87 C-17.48545076 87.5637006 -20.93070395 87.4644122 -24.453125 87.390625 C-25.46848328 87.38496521 -26.48384155 87.37930542 -27.52996826 87.37347412 C-30.77046001 87.35109753 -34.0098429 87.30089755 -37.25 87.25 C-39.44790069 87.22993671 -41.64581872 87.21168565 -43.84375 87.1953125 C-49.2295445 87.15122871 -54.61469303 87.08430373 -60 87 C-61.03811091 59.67372662 -61.03811091 59.67372662 -55 49 C-54.44183594 47.95457031 -53.88367188 46.90914062 -53.30859375 45.83203125 C-48.25292447 36.9978033 -41.84272077 29.48628268 -35 22 C-34.31035156 21.23816406 -33.62070313 20.47632813 -32.91015625 19.69140625 C-25.84362303 12.26631744 -10.97119996 -3.31645751 0 0 Z " fill="#05090A" transform="translate(134,204)"/>
<path d="M0 0 C3.650625 0.0309375 3.650625 0.0309375 7.375 0.0625 C7.375 5.3425 7.375 10.6225 7.375 16.0625 C-0.7504951 20.78687938 -8.88016602 25.28849346 -17.4375 29.1875 C-31.54015915 35.21597924 -31.54015915 35.21597924 -41.625 46.0625 C-35.04908149 43.94483133 -28.93446565 41.29229772 -22.8125 38.125 C-16.5099245 34.87132927 -10.25586967 32.31183573 -3.515625 30.0703125 C-0.69481274 29.16826015 -0.69481274 29.16826015 1.515625 27.9296875 C3.375 27.0625 3.375 27.0625 7.375 27.0625 C7.39812883 34.47709942 7.41591785 41.89169111 7.42681217 49.30631924 C7.43203982 52.74890348 7.43913531 56.19146312 7.45043945 59.6340332 C7.46334235 63.58805043 7.46822918 67.54205756 7.47265625 71.49609375 C7.47781754 72.73773788 7.48297882 73.97938202 7.48829651 75.25865173 C7.48837204 76.39975906 7.48844757 77.54086639 7.48852539 78.71655273 C7.490746 79.726931 7.49296661 80.73730927 7.49525452 81.77830505 C7.375 84.0625 7.375 84.0625 6.375 85.0625 C-14.529 86.85823604 -35.47051761 83.3283263 -55.625 78.0625 C-56.285 74.1025 -56.945 70.1425 -57.625 66.0625 C-60.1 67.0525 -60.1 67.0525 -62.625 68.0625 C-60.4489588 47.07924562 -30.84305459 22.22712777 -16.5625 7.875 C-15.90668945 7.2145166 -15.25087891 6.5540332 -14.57519531 5.87353516 C-13.65432129 4.95580322 -13.65432129 4.95580322 -12.71484375 4.01953125 C-12.16691162 3.47272705 -11.61897949 2.92592285 -11.05444336 2.36254883 C-7.75454925 -0.63863582 -4.1977308 -0.04996246 0 0 Z " fill="#05090A" transform="translate(276.625,80.9375)"/>
<path d="M0 0 C26.73 0 53.46 0 81 0 C79 4 79 4 77 7 C76.34 7 75.68 7 75 7 C74.76925781 7.55816406 74.53851563 8.11632812 74.30078125 8.69140625 C72.65466491 11.61289201 70.58926868 13.60054666 68.1875 15.9375 C67.33542969 16.77152344 66.48335938 17.60554688 65.60546875 18.46484375 C64.31576172 19.71974609 64.31576172 19.71974609 63 21 C59.67808727 24.29442682 59.67808727 24.29442682 56.4375 27.66796875 C52.71534613 31.60252814 48.656639 34.95277715 44.375 38.25 C43.82457031 38.67434326 43.27414063 39.09868652 42.70703125 39.53588867 C34.22955581 45.96676876 34.22955581 45.96676876 30.6875 46.0625 C28.08506722 45.03363123 26.55088787 43.96500735 24.375 42.25 C18.32150564 37.50752607 11.58526929 34.33204729 4 33 C0.71115907 32.38334233 0.23459414 32.2859116 -2 29.5625 C-3.65460186 25.32258274 -4.2175275 21.99118143 -4.3125 17.4375 C-4.34988281 16.28121094 -4.38726562 15.12492187 -4.42578125 13.93359375 C-4 10 -4 10 0 0 Z " fill="#040809" transform="translate(175,81)"/>
<path d="M0 0 C7.06869685 3.30284088 13.30467949 9.09074867 16.02734375 16.4609375 C18.18387762 25.62268269 17.04974587 33.20882695 12.46875 41.3984375 C9.74754284 45.23810692 6.71251194 47.72331596 2.625 50 C1.69429687 50.53753906 0.76359375 51.07507813 -0.1953125 51.62890625 C-6.70694456 54.43674759 -15.16755207 54.07852971 -21.875 51.8125 C-30.20696629 47.49773174 -34.73454165 41.68911693 -38.375 33 C-40.14518346 23.57882227 -37.37679104 15.59097453 -32.25 7.75 C-22.97513428 -1.12161069 -12.61515916 -3.80977807 0 0 Z " fill="#070A0A" transform="translate(179.375,139)"/>
<path d="M0 0 C5.94631889 -0.3760266 8.85773558 -0.12695628 13.6875 3.6875 C14.62851563 4.42484375 15.56953125 5.1621875 16.5390625 5.921875 C19.18768514 8.15848967 21.61059288 10.48805918 24 13 C25.53706583 14.35938666 27.07940164 15.71282256 28.625 17.0625 C51.85487825 37.9417358 51.85487825 37.9417358 53.421875 48.96875 C52.90239691 52.70129627 51.57821766 54.95338791 49.5625 58.125 C47.46155125 61.46105196 45.83843599 64.15789662 45 68 C37.90767878 67.58834581 31.724839 66.24786553 25.0625 63.8125 C24.19367188 63.50078857 23.32484375 63.18907715 22.4296875 62.86791992 C5.63303028 56.68686305 5.63303028 56.68686305 0 50 C-0.45410156 47.43457031 -0.45410156 47.43457031 -0.390625 44.578125 C-0.37773438 43.55332031 -0.36484375 42.52851562 -0.3515625 41.47265625 C-0.31804687 40.40917969 -0.28453125 39.34570312 -0.25 38.25 C-0.23195313 37.17105469 -0.21390625 36.09210938 -0.1953125 34.98046875 C-0.14821415 32.31941212 -0.082456 29.66015746 0 27 C5.62395137 27.48482339 9.42314952 29.68053224 14.125 32.5625 C14.87056152 33.01069092 15.61612305 33.45888184 16.38427734 33.9206543 C24.14968241 38.62445704 31.72001329 43.5947342 39.0625 48.9375 C41.86382915 51.11368603 41.86382915 51.11368603 45 52 C45 51.01 45 50.02 45 49 C44.27039063 48.72994141 43.54078125 48.45988281 42.7890625 48.18164062 C40.07619538 47.03228166 37.82461714 45.72204902 35.375 44.09375 C34.07671265 43.23221313 34.07671265 43.23221313 32.75219727 42.35327148 C31.84397217 41.74169189 30.93574707 41.1301123 30 40.5 C29.06534912 39.87359619 28.13069824 39.24719238 27.16772461 38.60180664 C19.87851135 33.67751296 12.83165189 28.54266097 6 23 C4.90300781 22.27554688 3.80601563 21.55109375 2.67578125 20.8046875 C-0.15816203 17.83421848 -0.40176868 17.40820615 -0.5859375 13.57421875 C-0.54634376 11.94427649 -0.47518366 10.31484221 -0.375 8.6875 C-0.34792969 7.85154297 -0.32085937 7.01558594 -0.29296875 6.15429688 C-0.22259563 4.10174753 -0.11498322 2.05053409 0 0 Z " fill="#090C0D" transform="translate(74,81)"/>
<path d="M0 0 C1.10601562 -0.01224609 2.21203125 -0.02449219 3.3515625 -0.03710938 C13.99527741 -0.05629876 13.99527741 -0.05629876 18.375 2.1875 C21.32469615 5.53767709 22.34012843 9.22853169 22.5 13.625 C17.13125686 30.62601994 -0.87742314 40.72738465 -15.4921875 49.0078125 C-18.625 50.1875 -18.625 50.1875 -26.625 50.1875 C-26.625 34.6775 -26.625 19.1675 -26.625 3.1875 C-17.62089522 0.18613174 -9.40965556 0.0055221 0 0 Z " fill="#070B0C" transform="translate(100.625,178.8125)"/>
<path d="M0 0 C22.11 0 44.22 0 67 0 C70.43483209 10.30449627 71.7768496 18.01760916 67 28 C64.46842062 31.29105319 62.0089884 32.89752819 58 34 C55.875 34.0625 55.875 34.0625 54 33 C49.6306825 25.17163948 46.60536908 14.94043143 47 6 C46.01 6 45.02 6 44 6 C44.19916016 7.12535156 44.19916016 7.12535156 44.40234375 8.2734375 C46.12415369 18.2523944 47.19402419 27.86762572 47 38 C46.01 38.33 45.02 38.66 44 39 C44 39.66 44 40.32 44 41 C38.67162047 40.58208788 35.47201568 38.53843917 31.4375 35.25 C30.88642578 34.81945312 30.33535156 34.38890625 29.76757812 33.9453125 C18.94580346 25.37005096 7.4819886 13.64469498 0 2 C0 1.34 0 0.68 0 0 Z " fill="#060909" transform="translate(96,81)"/>
<path d="M0 0 C5.8702089 -0.21130111 10.80142578 0.38486001 16.4375 2 C17.20739258 2.21930176 17.97728516 2.43860352 18.77050781 2.66455078 C24.43454055 4.36145346 29.86595605 6.4343442 35.25 8.875 C35.9402124 9.17792969 36.6304248 9.48085937 37.34155273 9.79296875 C42.45864897 12.23800625 45.61433234 15.48736596 49 20 C46 21 46 21 43.8125 20.0625 C43.214375 19.711875 42.61625 19.36125 42 19 C42 21.64 42 24.28 42 27 C33.82047462 30.68880556 26.94474119 31.18216304 18 31.1875 C16.91976562 31.19974609 15.83953125 31.21199219 14.7265625 31.22460938 C13.16035156 31.22750977 13.16035156 31.22750977 11.5625 31.23046875 C10.61503906 31.23457764 9.66757813 31.23868652 8.69140625 31.24291992 C5.5207049 30.95673997 2.3255523 30.3255523 0 28 C-0.08767112 25.92737924 -0.10695873 23.85179706 -0.09765625 21.77734375 C-0.09443359 20.51728516 -0.09121094 19.25722656 -0.08789062 17.95898438 C-0.07953403 16.61848891 -0.07106907 15.27799412 -0.0625 13.9375 C-0.0574866 12.59310058 -0.05292342 11.2486994 -0.04882812 9.90429688 C-0.03699488 6.60282059 -0.02050971 3.30143197 0 0 Z " fill="#070B0C" transform="translate(74,144)"/>
<path d="M0 0 C1.65 0.33 3.3 0.66 5 1 C4.34 1.33 3.68 1.66 3 2 C3 29.39 3 56.78 3 85 C2.01 85 1.02 85 0 85 C0 85.99 0 86.98 0 88 C0.66 88.33 1.32 88.66 2 89 C0.68 89 -0.64 89 -2 89 C-2 91.31 -2 93.62 -2 96 C-3.65 96 -5.3 96 -7 96 C-7.33 96.66 -7.66 97.32 -8 98 C-8.54527344 97.32195312 -9.09054687 96.64390625 -9.65234375 95.9453125 C-14.25419496 90.2657628 -18.95389724 84.74284324 -23.87890625 79.33984375 C-25.80786335 77.21195185 -27.69036353 75.05279141 -29.5625 72.875 C-40.30446873 60.57371323 -52.93413671 49.33532639 -67 41 C-65.515 40.505 -65.515 40.505 -64 40 C-64.495 38.515 -64.495 38.515 -65 37 C-64.01 36.01 -63.02 35.02 -62 34 C-61.18917969 34.83402344 -60.37835938 35.66804688 -59.54296875 36.52734375 C-52.69772754 43.510094 -45.72550959 49.98486442 -38 56 C-36.57769952 57.12706744 -35.15586111 58.25471813 -33.734375 59.3828125 C-23.76494744 67.25740632 -13.72231154 74.57936951 -2.81445312 81.11523438 C-1.46244812 81.92559143 -1.46244812 81.92559143 -0.08312988 82.75231934 C0.60430298 83.16405396 1.29173584 83.57578857 2 84 C1.89260847 73.34300375 1.77999762 62.68607681 1.66066074 52.02920723 C1.60541753 47.08118064 1.55199528 42.13314815 1.50268555 37.18505859 C1.45506263 32.41287858 1.40272058 27.64077184 1.34705925 22.86867905 C1.32662629 21.04497977 1.30791478 19.2212604 1.29092598 17.39752579 C1.26690278 14.8497412 1.23684544 12.30209578 1.20532227 9.75439453 C1.1995668 8.99482452 1.19381134 8.23525452 1.18788147 7.45266724 C1.20110112 3.59880592 1.20110112 3.59880592 0 0 Z " fill="#F1F2F3" transform="translate(282,174)"/>
<path d="M0 0 C0.25394531 0.54269531 0.50789062 1.08539063 0.76953125 1.64453125 C1.11371094 2.35996094 1.45789063 3.07539063 1.8125 3.8125 C2.14894531 4.52019531 2.48539063 5.22789062 2.83203125 5.95703125 C4.07275897 8.12726737 4.99218494 9.50326513 7 11 C9.73230305 11.57775884 9.73230305 11.57775884 12.6875 11.6875 C13.68136719 11.75324219 14.67523438 11.81898438 15.69921875 11.88671875 C16.83810547 11.94279297 16.83810547 11.94279297 18 12 C18 11.34 18 10.68 18 10 C18.78375 9.4225 19.5675 8.845 20.375 8.25 C23.39807984 5.65878871 24.04921098 3.80315606 25 0 C28.37462715 0.54723683 30.08235 1.0549 33 3 C34.2031841 7.17103822 34.39823697 9.20352606 32.4375 13.125 C27.84228961 18.54499174 23.25083667 22.53191811 15.94921875 23.3359375 C7.79967688 23.4335368 2.48889778 22.72626784 -3.81640625 17.4921875 C-7.026692 14.28935021 -8.3914126 11.82472822 -8.5625 7.25 C-8.49190803 4.55809295 -8.29910923 3.38371441 -6.6328125 1.24609375 C-4.39088917 -0.46484774 -2.74446334 -0.22252405 0 0 Z " fill="#F1F2F2" transform="translate(156,164)"/>
<path d="M0 0 C-0.42938821 4.86639967 -2.83470066 7.53011025 -6 11 C-11.57536711 17.32315898 -16.3436114 23.97517671 -21 31 C-21.66 30.01 -22.32 29.02 -23 28 C-25.05925139 27.27617533 -25.05925139 27.27617533 -27 27 C-27.12375 25.8553125 -27.12375 25.8553125 -27.25 24.6875 C-28.15667629 21.43857664 -29.28855764 20.84920369 -32 19 C-30.78376953 18.19949219 -30.78376953 18.19949219 -29.54296875 17.3828125 C-22.56566949 12.71220732 -16.36804237 7.8428443 -10.33984375 1.96875 C-6.75844872 -1.04464415 -4.40087968 -1.41456847 0 0 Z " fill="#EAEBED" transform="translate(240,107)"/>
<path d="M0 0 C2.475 0.495 2.475 0.495 5 1 C4.01 1.495 4.01 1.495 3 2 C3 29.39 3 56.78 3 85 C2.01 85 1.02 85 0 85 C0 85.99 0 86.98 0 88 C0.66 88.33 1.32 88.66 2 89 C0.68 89 -0.64 89 -2 89 C-2 91.31 -2 93.62 -2 96 C-3.65 96 -5.3 96 -7 96 C-7.495 96.99 -7.495 96.99 -8 98 C-9.4874965 96.25707481 -10.96472492 94.50538246 -12.4375 92.75 C-13.26121094 91.77546875 -14.08492188 90.8009375 -14.93359375 89.796875 C-16.74849057 87.3404173 -17.61157441 85.96615903 -18 83 C-17.34 83 -16.68 83 -16 83 C-15.505 82.505 -15.01 82.01 -14.5 81.5 C-14.005 81.005 -13.51 80.51 -13 80 C-12.34 80 -11.68 80 -11 80 C-11 79.34 -11 78.68 -11 78 C-11.66 78 -12.32 78 -13 78 C-13 77.34 -13 76.68 -13 76 C-9.30123909 77.37287342 -6.0485524 79.06355453 -2.6875 81.125 C-1.80449219 81.66382813 -0.92148437 82.20265625 -0.01171875 82.7578125 C0.65214844 83.16773438 1.31601562 83.57765625 2 84 C1.89260847 73.34300375 1.77999762 62.68607681 1.66066074 52.02920723 C1.60541753 47.08118064 1.55199528 42.13314815 1.50268555 37.18505859 C1.45506263 32.41287858 1.40272058 27.64077184 1.34705925 22.86867905 C1.32662629 21.04497977 1.30791478 19.2212604 1.29092598 17.39752579 C1.26690278 14.8497412 1.23684544 12.30209578 1.20532227 9.75439453 C1.19668907 8.61503952 1.19668907 8.61503952 1.18788147 7.45266724 C1.20110112 3.59880592 1.20110112 3.59880592 0 0 Z " fill="#D1D3D3" transform="translate(282,174)"/>
<path d="M0 0 C0.33 0.66 0.66 1.32 1 2 C0.21625 2.763125 -0.5675 3.52625 -1.375 4.3125 C-4.07257717 6.90891805 -4.07257717 6.90891805 -6 10 C-5.67 10.66 -5.34 11.32 -5 12 C-3.66923011 12.34342449 -2.33568021 12.67619874 -1 13 C1 15 1 15 2 18 C1.113125 18.495 0.22625 18.99 -0.6875 19.5 C-4.38217798 21.6198972 -8.04253121 23.79594651 -11.6875 26 C-12.78449219 26.66 -13.88148438 27.32 -15.01171875 28 C-18.36205613 30.2423173 -21.17695514 32.35391027 -23 36 C-22.34 36.33 -21.68 36.66 -21 37 C-25.15654359 36.53816182 -27.21466571 36.11990898 -30 33 C-10.025 9.75405405 -10.025 9.75405405 0 0 Z " fill="#090B0C" transform="translate(258,91)"/>
<path d="M0 0 C2.1953125 -0.0234375 2.1953125 -0.0234375 5 1 C7.00676721 3.58329702 8.40326599 6.46262904 9.875 9.375 C10.75538272 11.03644604 11.63819089 12.69660917 12.5234375 14.35546875 C12.94850586 15.16032715 13.37357422 15.96518555 13.81152344 16.79443359 C16.2758883 21.36778449 19.13057186 25.67453507 22 30 C22.79081322 31.21585415 23.58114434 32.43202195 24.37109375 33.6484375 C29.22776799 41.07980162 34.27185282 48.19982528 40 55 C39.505 55.99 39.505 55.99 39 57 C38.01 57 37.02 57 36 57 C35.01 57.66 34.02 58.32 33 59 C32.69932617 58.40799805 32.39865234 57.81599609 32.08886719 57.20605469 C24.91214647 43.12926688 17.33683877 29.42240385 9 16 C8.61376465 15.37512695 8.2275293 14.75025391 7.82958984 14.10644531 C4.33271081 8.23103915 4.33271081 8.23103915 0 3 C0 2.01 0 1.02 0 0 Z " fill="#E1E5E6" transform="translate(202,223)"/>
<path d="M0 0 C2 1 2 1 4 4 C6.05003955 5.19232613 6.05003955 5.19232613 8 6 C7.04222656 6.3403125 6.08445312 6.680625 5.09765625 7.03125 C-3.96929888 10.31159454 -12.67790136 14.0651521 -21.35546875 18.265625 C-29.13276253 22 -29.13276253 22 -33 22 C-30.07029485 12.58652115 -16.97860622 8.29575826 -8.75170898 3.93261719 C-5.83674547 2.40804208 -3.12983471 1.04327824 0 0 Z " fill="#E8E9E8" transform="translate(268,105)"/>
<path d="M0 0 C0.66 0.33 1.32 0.66 2 1 C1.67 1.66 1.34 2.32 1 3 C0.01 2.67 -0.98 2.34 -2 2 C-1.34 1.34 -0.68 0.68 0 0 Z M-2 3 C-2 3.99 -2 4.98 -2 6 C-3.32 6 -4.64 6 -6 6 C-6 6.66 -6 7.32 -6 8 C-5.34 8.33 -4.68 8.66 -4 9 C-4.33 9.99 -4.66 10.98 -5 12 C-4.34 12.33 -3.68 12.66 -3 13 C-3.60328125 13.64066406 -4.2065625 14.28132812 -4.828125 14.94140625 C-9.25041577 19.7274661 -13.08115176 24.16230353 -16 30 C-17.0625 28.125 -17.0625 28.125 -18 26 C-17.67 25.34 -17.34 24.68 -17 24 C-18.32 24 -19.64 24 -21 24 C-20.505 19.545 -20.505 19.545 -20 15 C-19.01 14.67 -18.02 14.34 -17 14 C-16.95746094 13.24332031 -16.91492188 12.48664063 -16.87109375 11.70703125 C-16 9 -16 9 -13.34765625 7.19921875 C-11.72150391 6.45091797 -11.72150391 6.45091797 -10.0625 5.6875 C-8.98097656 5.17574219 -7.89945313 4.66398438 -6.78515625 4.13671875 C-4 3 -4 3 -2 3 Z " fill="#EFF0EF" transform="translate(99,218)"/>
<path d="M0 0 C3.56896152 2.98627393 7.01831343 5.96343983 10.25 9.3125 C14.01013053 13.14919428 18.14783645 16.45258079 22.3515625 19.7890625 C25.06581292 22.05494117 27.53685332 24.46571551 30 27 C28.66666667 28.33333333 27.33333333 29.66666667 26 31 C25.18917969 30.2265625 24.37835938 29.453125 23.54296875 28.65625 C16.70921464 22.20347535 9.79191811 16.29646721 2 11 C1.33484375 10.54625 0.6696875 10.0925 -0.015625 9.625 C-1.33515524 8.7370918 -2.66567143 7.86551042 -4 7 C-3.01 6.67 -2.02 6.34 -1 6 C-1.33 5.01 -1.66 4.02 -2 3 C-1.34 2.01 -0.68 1.02 0 0 Z " fill="#EEEFF1" transform="translate(219,208)"/>
<path d="M0 0 C0.33 0.66 0.66 1.32 1 2 C0.67 2.66 0.34 3.32 0 4 C2.97 4.495 2.97 4.495 6 5 C1.01441374 11.03518337 -4.42810265 16.50757503 -10 22 C-11.66782609 23.66550644 -13.33481811 25.33184987 -15 27 C-15.33 26.01 -15.66 25.02 -16 24 C-16.99 23.67 -17.98 23.34 -19 23 C-19.33 23.66 -19.66 24.32 -20 25 C-20.66 24.34 -21.32 23.68 -22 23 C-21.38125 22.7525 -20.7625 22.505 -20.125 22.25 C-17.89272413 21.20585064 -17.89272413 21.20585064 -17.1640625 19.22265625 C-15.64138546 16.31526284 -13.6120243 14.46005368 -11.25 12.1875 C-7.2577908 8.28207796 -3.55526438 4.30374109 0 0 Z " fill="#E9EDEC" transform="translate(255,83)"/>
<path d="M0 0 C0.33 0 0.66 0 1 0 C1.06944095 7.39727248 1.12278091 14.79447494 1.15543652 22.19200706 C1.17110785 25.62681954 1.19237214 29.06140941 1.22631836 32.49609375 C1.2650808 36.44268144 1.27969712 40.38917828 1.29296875 44.3359375 C1.30845261 45.57242035 1.32393646 46.8089032 1.33988953 48.08285522 C1.34011612 49.22388702 1.34034271 50.36491882 1.34057617 51.54052734 C1.34723801 52.548685 1.35389984 53.55684265 1.36076355 54.59555054 C1.24171158 55.38901886 1.12265961 56.18248718 1 57 C-2.44450737 59.29633824 -4.93812283 59.54016485 -9 60 C-8.67 60.99 -8.34 61.98 -8 63 C-11.66776283 62.55986846 -15.31847771 62.11366192 -18.96289062 61.50585938 C-28.18691375 60.01285975 -37.0701105 59.75890792 -46.375 59.875 C-47.8046811 59.88506818 -49.23436921 59.89418712 -50.6640625 59.90234375 C-54.10952479 59.9240114 -57.5547146 59.95832057 -61 60 C-61 59.67 -61 59.34 -61 59 C-55.15111957 57.98105924 -49.49080831 57.88201547 -43.5625 57.9375 C-42.64017578 57.94201172 -41.71785156 57.94652344 -40.76757812 57.95117188 C-38.51164952 57.96286062 -36.25586033 57.97924545 -34 58 C-34 57.34 -34 56.68 -34 56 C-34.66 55.67 -35.32 55.34 -36 55 C-35.40058594 55.0721875 -34.80117187 55.144375 -34.18359375 55.21875 C-22.99889714 56.36426658 -12.46383936 56 -1 56 C-0.67 37.52 -0.34 19.04 0 0 Z " fill="#C2C3C4" transform="translate(284,109)"/>
<path d="M0 0 C3.20410595 3.15138757 6.28404141 6.3771543 9.30102539 9.70751953 C13.77192457 14.63987963 18.24594335 19.37190136 23.37890625 23.6328125 C25.01244456 25.01049541 26.51013827 26.46938217 28 28 C27.34 28 26.68 28 26 28 C25.67 28.66 25.34 29.32 25 30 C24.01 30 23.02 30 22 30 C21.34 30.33 20.68 30.66 20 31 C19.64881104 30.51168701 19.29762207 30.02337402 18.93579102 29.52026367 C15.23336022 24.46654545 11.25098458 19.85030447 6.9375 15.3125 C6.0393457 14.35633789 6.0393457 14.35633789 5.12304688 13.38085938 C1.80608051 9.86044272 -1.5603974 6.4005901 -5 3 C-4.360625 2.87625 -3.72125 2.7525 -3.0625 2.625 C-2.0415625 2.315625 -2.0415625 2.315625 -1 2 C-0.67 1.34 -0.34 0.68 0 0 Z " fill="#EEF0F0" transform="translate(101,89)"/>
<path d="M0 0 C0.9590625 0.40025391 0.9590625 0.40025391 1.9375 0.80859375 C5.91706622 2.35676683 9.94999856 3.71140374 14 5.0625 C14.7940625 5.33126953 15.588125 5.60003906 16.40625 5.87695312 C20.24809319 7.16076906 23.99002366 8.34514499 28 9 C28 10.65 28 12.3 28 14 C28.66 14 29.32 14 30 14 C31.38232443 15.62626404 32.71937515 17.2925002 34 19 C33.34 19.66 32.68 20.32 32 21 C31.505 19.515 31.505 19.515 31 18 C29.27295913 17.14933882 29.27295913 17.14933882 27.125 16.625 C23.51785162 15.54172116 20.25721227 14.21816379 16.875 12.5625 C10.17460601 9.41722259 3.1660305 7.7310654 -4 6 C-3.01 5.34 -2.02 4.68 -1 4 C-1.33 3.34 -1.66 2.68 -2 2 C-1.34 1.34 -0.68 0.68 0 0 Z " fill="#EDEFF0" transform="translate(86,139)"/>
<path d="M0 0 C7.65517241 7.24137931 7.65517241 7.24137931 8.375 13 C7.95541352 16.35669186 6.93515649 18.25852831 5 21 C4.01 20.67 3.02 20.34 2 20 C2 19.34 2 18.68 2 18 C0.68 18.33 -0.64 18.66 -2 19 C-2.33 18.01 -2.66 17.02 -3 16 C-2.01 16 -1.02 16 0 16 C0 15.01 0 14.02 0 13 C-0.763125 12.731875 -1.52625 12.46375 -2.3125 12.1875 C-4.87380884 11.05575888 -6.19692938 10.08776599 -8 8 C-6.02 7.34 -4.04 6.68 -2 6 C-2 4.68 -2 3.36 -2 2 C-1.34 2 -0.68 2 0 2 C0 1.34 0 0.68 0 0 Z " fill="#131314" transform="translate(119,117)"/>
<path d="M0 0 C0 5.21806852 -1.04814175 8.68225998 -4 13 C-6.41796875 15.17578125 -6.41796875 15.17578125 -9.1875 17.3125 C-13.60951194 20.80788344 -17.58831515 24.45697645 -21.44140625 28.56640625 C-23 30 -23 30 -25 30 C-25.33 28.02 -25.66 26.04 -26 24 C-24.68 24 -23.36 24 -22 24 C-22 23.01 -22 22.02 -22 21 C-21.01 21 -20.02 21 -19 21 C-18.65001953 19.88044922 -18.65001953 19.88044922 -18.29296875 18.73828125 C-16.76139657 15.49467974 -15.19576333 14.28482019 -12.3125 12.1875 C-7.55916324 8.56558157 -3.73425281 4.6492684 0 0 Z " fill="#EFF1F0" transform="translate(119,200)"/>
<path d="M0 0 C4.59056789 2.39961503 8.62911261 5.16817707 12.75 8.3125 C19.06600783 13.12056096 25.60856939 17.4389121 32.46484375 21.4375 C33.19832031 21.870625 33.93179688 22.30375 34.6875 22.75 C35.33074219 23.11609375 35.97398438 23.4821875 36.63671875 23.859375 C37.08660156 24.23578125 37.53648438 24.6121875 38 25 C38 25.99 38 26.98 38 28 C33.41299095 27.71331193 30.95481328 25.59339856 27.48828125 22.87109375 C19.2923489 16.70806142 10.31495857 11.49827805 1.42578125 6.41015625 C-0.4209967 5.33658646 -2.22261498 4.18492335 -4 3 C-2.68 2.01 -1.36 1.02 0 0 Z " fill="#E0E1E2" transform="translate(81,105)"/>
<path d="M0 0 C0.144375 0.61875 0.28875 1.2375 0.4375 1.875 C0.93152225 4.03258322 0.93152225 4.03258322 2 6 C3 8 3 8 2.59448242 9.78076172 C2.35060791 10.48990723 2.1067334 11.19905273 1.85546875 11.9296875 C1.45956543 13.11413452 1.45956543 13.11413452 1.05566406 14.32250977 C0.76916992 15.16483154 0.48267578 16.00715332 0.1875 16.875 C-2.23023137 24.22950725 -3.94339192 31.32273063 -5 39 C-5.62844722 42.34139188 -6.30774672 45.67129274 -7 49 C-7.33 49 -7.66 49 -8 49 C-8.33 47.02 -8.66 45.04 -9 43 C-9.99 43 -10.98 43 -12 43 C-11.81824219 42.40501709 -11.63648438 41.81003418 -11.44921875 41.19702148 C-9.5246135 34.84644101 -7.73104671 28.46827441 -6 22.0625 C-5.5 20.22005208 -5 18.37760417 -4.5 16.53515625 C-4.25636719 15.63555176 -4.01273438 14.73594727 -3.76171875 13.80908203 C-2.51315384 9.20459873 -1.25654298 4.60231144 0 0 Z " fill="#DDDDDF" transform="translate(146,223)"/>
<path d="M0 0 C0.33 0.99 0.66 1.98 1 3 C2.32 2.67 3.64 2.34 5 2 C5.33 2.99 5.66 3.98 6 5 C6.66 5.66 7.32 6.32 8 7 C6.98679688 7.58007812 6.98679688 7.58007812 5.953125 8.171875 C5.06109375 8.69265625 4.1690625 9.2134375 3.25 9.75 C2.36828125 10.26046875 1.4865625 10.7709375 0.578125 11.296875 C-2.62109206 13.41029718 -5.26805329 15.53610659 -7 19 C-6.34 19.33 -5.68 19.66 -5 20 C-9.15654359 19.53816182 -11.21466571 19.11990898 -14 16 C-11.85478186 13.52030041 -9.70872226 11.04133053 -7.5625 8.5625 C-6.95083984 7.85544922 -6.33917969 7.14839844 -5.70898438 6.41992188 C-5.12568359 5.74638672 -4.54238281 5.07285156 -3.94140625 4.37890625 C-3.13231812 3.44413452 -3.13231812 3.44413452 -2.30688477 2.49047852 C-1.5608583 1.63964878 -0.80014584 0.80014584 0 0 Z " fill="#0D0F0E" transform="translate(242,108)"/>
<path d="M0 0 C0.33 0 0.66 0 1 0 C1.33 2.64 1.66 5.28 2 8 C2.99 7.67 3.98 7.34 5 7 C5.66 7.33 6.32 7.66 7 8 C7.12375 9.794375 7.12375 9.794375 7.25 11.625 C7.78179751 16.73208988 10.11433876 19.75048684 14 23 C16.32164462 24.30940756 18.4593225 25.13616965 21 26 C20.34 26.33 19.68 26.66 19 27 C19 28.32 19 29.64 19 31 C11.18474944 28.95314866 7.40228103 25.02124243 3.125 18.4375 C-0.39938077 12.20205711 -0.78488178 7.02656072 0 0 Z " fill="#1B1C1B" transform="translate(141,160)"/>
<path d="M0 0 C3.2618498 4.8927747 2.56736954 10.28012333 2 16 C0.9885822 19.21454961 -0.31363942 22.08651096 -2 25 C-2.33 24.01 -2.66 23.02 -3 22 C-3.99 22.33 -4.98 22.66 -6 23 C-5.70703125 21.01432292 -5.4140625 19.02864583 -5.12109375 17.04296875 C-4.86095201 14.7974658 -4.86095201 14.7974658 -6 12 C-9.50294871 10.28432339 -9.50294871 10.28432339 -13 9 C-13.33 10.32 -13.66 11.64 -14 13 C-14 11.35 -14 9.7 -14 8 C-14.99 8.33 -15.98 8.66 -17 9 C-17 8.34 -17 7.68 -17 7 C-14.03 6.34 -11.06 5.68 -8 5 C-7.01 6.485 -7.01 6.485 -6 8 C-5.67 8.33 -5.34 8.66 -5 9 C-3.32457024 8.71395102 -1.65614657 8.38218767 0 8 C0 5.36 0 2.72 0 0 Z " fill="#222324" transform="translate(194,155)"/>
<path d="M0 0 C1.46566406 -0.03867188 1.46566406 -0.03867188 2.9609375 -0.078125 C5.625 0.25 5.625 0.25 7.5390625 1.453125 C8.625 3.25 8.625 3.25 8.3125 5.9375 C8.085625 6.700625 7.85875 7.46375 7.625 8.25 C5.68780622 8.30406122 3.75018079 8.34282025 1.8125 8.375 C0.73355469 8.39820313 -0.34539062 8.42140625 -1.45703125 8.4453125 C-4.375 8.25 -4.375 8.25 -7.375 6.25 C-6.33276731 0.44327502 -5.92932673 0.09337522 0 0 Z " fill="#CACDCD" transform="translate(168.375,143.75)"/>
<path d="M0 0 C0.66 0 1.32 0 2 0 C3.07525194 2.65228812 4.09456151 5.28368454 5 8 C5.66 7.34 6.32 6.68 7 6 C9.375 5.875 9.375 5.875 12 6 C13.32 6 14.64 6 16 6 C16 10 16 10 14.8125 11.625 C11.9947607 13.76259533 9.43957901 14.95765944 5.875 15.0625 C2.77459176 13.305602 1.97194983 10.25475304 1 7 C0.5945897 4.67810464 0.23927006 2.34484656 0 0 Z " fill="#080B0B" transform="translate(146,100)"/>
<path d="M0 0 C4.96300807 1.79320365 4.96300807 1.79320365 6.265625 4.3984375 C5.6675 4.5015625 5.069375 4.6046875 4.453125 4.7109375 C1.98319236 5.48720205 0.94311265 6.46932671 -0.734375 8.3984375 C-1.724375 7.7384375 -2.714375 7.0784375 -3.734375 6.3984375 C-6.01350438 5.94449198 -6.01350438 5.94449198 -8.421875 5.7734375 C-9.63423828 5.66128906 -9.63423828 5.66128906 -10.87109375 5.546875 C-11.48597656 5.49789062 -12.10085937 5.44890625 -12.734375 5.3984375 C-12.734375 5.0684375 -12.734375 4.7384375 -12.734375 4.3984375 C-11.084375 4.0684375 -9.434375 3.7384375 -7.734375 3.3984375 C-8.8275 3.2540625 -9.920625 3.1096875 -11.046875 2.9609375 C-14.734375 2.3984375 -14.734375 2.3984375 -17.734375 1.3984375 C-17.734375 2.0584375 -17.734375 2.7184375 -17.734375 3.3984375 C-19.384375 3.3984375 -21.034375 3.3984375 -22.734375 3.3984375 C-17.07973982 -2.51322655 -7.6338933 -1.67945653 0 0 Z " fill="#141616" transform="translate(177.734375,138.6015625)"/>
<path d="M0 0 C0 0.99 0 1.98 0 3 C0.99 2.67 1.98 2.34 3 2 C3.33 2.99 3.66 3.98 4 5 C2.56640625 7.69921875 2.56640625 7.69921875 0.5625 10.6875 C-0.09621094 11.68136719 -0.75492187 12.67523438 -1.43359375 13.69921875 C-1.95050781 14.45847656 -2.46742187 15.21773437 -3 16 C-4.0625 14.125 -4.0625 14.125 -5 12 C-4.67 11.34 -4.34 10.68 -4 10 C-5.32 10 -6.64 10 -8 10 C-8.3125 7.8125 -8.3125 7.8125 -8 5 C-3.88888889 0 -3.88888889 0 0 0 Z " fill="#E0E1E1" transform="translate(86,232)"/>
<path d="M0 0 C26.73 0 53.46 0 81 0 C80.34 1.32 79.68 2.64 79 4 C78.01 3.505 78.01 3.505 77 3 C77 2.34 77 1.68 77 1 C51.92 1 26.84 1 1 1 C0.67 2.32 0.34 3.64 0 5 C-0.99 5.495 -0.99 5.495 -2 6 C-1.34 4.02 -0.68 2.04 0 0 Z " fill="#202223" transform="translate(175,81)"/>
<path d="M0 0 C4.57493694 0.50227293 4.57493694 0.50227293 6.45385742 2.70239258 C6.83388916 3.42579834 7.2139209 4.1492041 7.60546875 4.89453125 C8.03150391 5.68537109 8.45753906 6.47621094 8.89648438 7.29101562 C9.32251953 8.12310547 9.74855469 8.95519531 10.1875 9.8125 C10.62513672 10.63298828 11.06277344 11.45347656 11.51367188 12.29882812 C13.39490053 15.84013336 15.21300593 19.41032315 17 23 C15.68 23 14.36 23 13 23 C11.21875 20.83984375 11.21875 20.83984375 9.5 17.9375 C8.89800781 16.9371875 8.29601562 15.936875 7.67578125 14.90625 C6.33874247 12.58746946 5.00536654 10.26721163 3.6875 7.9375 C2.16442704 4.99048769 2.16442704 4.99048769 0 3 C0 2.01 0 1.02 0 0 Z " fill="#D3D7D8" transform="translate(202,223)"/>
<path d="M0 0 C-0.99 0 -1.98 0 -3 0 C-3 1.32 -3 2.64 -3 4 C-9.6 4.33 -16.2 4.66 -23 5 C-22.67 4.01 -22.34 3.02 -22 2 C-23.32 1.34 -24.64 0.68 -26 0 C-22.41713181 -0.19720979 -18.83369943 -0.38107522 -15.25 -0.5625 C-14.23421875 -0.61857422 -13.2184375 -0.67464844 -12.171875 -0.73242188 C-11.1921875 -0.78076172 -10.2125 -0.82910156 -9.203125 -0.87890625 C-8.30239258 -0.9260376 -7.40166016 -0.97316895 -6.47363281 -1.02172852 C-4.12542592 -1.00110175 -2.23793298 -0.67823071 0 0 Z " fill="#CFD0D2" transform="translate(108,175)"/>
<path d="M0 0 C0.99 0 1.98 0 3 0 C3.64687807 2.72892283 4.29253718 5.45812447 4.9375 8.1875 C5.21110352 9.34088867 5.21110352 9.34088867 5.49023438 10.51757812 C6.39120113 14.33440092 7.26637997 18.14656426 8 22 C7.01 21.01 6.02 20.02 5 19 C4.67 23.29 4.34 27.58 4 32 C3.67 32 3.34 32 3 32 C2.57001397 28.08590735 2.14284971 24.17151793 1.71826172 20.25683594 C1.50246062 18.27262449 1.28444615 16.28865418 1.06640625 14.3046875 C0.93105469 13.05429688 0.79570312 11.80390625 0.65625 10.515625 C0.53056641 9.36352539 0.40488281 8.21142578 0.27539062 7.02441406 C0 4 0 4 0 0 Z " fill="#B0B4B4" transform="translate(140,87)"/>
<path d="M0 0 C4.92310579 0.43439169 7.58903229 2.5115103 11 6 C11.875 9.3125 11.875 9.3125 12 12 C10.68 12.33 9.36 12.66 8 13 C6.84237881 11.78192862 5.6993417 10.54998765 4.5625 9.3125 C3.92441406 8.62800781 3.28632813 7.94351562 2.62890625 7.23828125 C0.83778902 4.77710578 0.37201442 2.99183426 0 0 Z " fill="#161616" transform="translate(268,256)"/>
<path d="M0 0 C1.0625 1.8125 1.0625 1.8125 2 4 C1.67 4.99 1.34 5.98 1 7 C1.66 7 2.32 7 3 7 C3 7.66 3 8.32 3 9 C2.34 9 1.68 9 1 9 C1 9.66 1 10.32 1 11 C2.32 10.34 3.64 9.68 5 9 C5 10.65 5 12.3 5 14 C4.01 14 3.02 14 2 14 C2.66 14.66 3.32 15.32 4 16 C3.34 16 2.68 16 2 16 C1.67 17.32 1.34 18.64 1 20 C-4 13.183391 -4 13.183391 -4 8.875 C-2.91317975 5.75039179 -1.58836304 2.90048904 0 0 Z " fill="#060909" transform="translate(216,186)"/>
<path d="M0 0 C0 3 0 3 -1.0625 6 C-2.3228592 9.00609168 -2.3228592 9.00609168 -1 12 C-2.65 13.65 -4.3 15.3 -6 17 C-6.33 16.01 -6.66 15.02 -7 14 C-7.99 13.67 -8.98 13.34 -10 13 C-10.33 13.66 -10.66 14.32 -11 15 C-11.66 14.34 -12.32 13.68 -13 13 C-12.38125 12.7525 -11.7625 12.505 -11.125 12.25 C-8.88612336 11.19515283 -8.88612336 11.19515283 -8.09375 9.15625 C-6.84222384 6.68895558 -5.3623326 5.16372769 -3.375 3.25 C-2.74335938 2.63640625 -2.11171875 2.0228125 -1.4609375 1.390625 C-0.73777344 0.70226562 -0.73777344 0.70226562 0 0 Z " fill="#EDEFF1" transform="translate(246,93)"/>
<path d="M0 0 C0 0.66 0 1.32 0 2 C-0.99 2.495 -0.99 2.495 -2 3 C-2.33 3.99 -2.66 4.98 -3 6 C1.95 6 6.9 6 12 6 C12 6.33 12 6.66 12 7 C10.84242188 7.01417969 9.68484375 7.02835938 8.4921875 7.04296875 C6.95308628 7.08989257 5.41402501 7.13813982 3.875 7.1875 C3.11445313 7.19330078 2.35390625 7.19910156 1.5703125 7.20507812 C-4.32671837 7.43384225 -6.75295016 8.95303914 -11 13 C-11.66 13 -12.32 13 -13 13 C-11.77989654 8.96427318 -10.54329882 5.39106509 -8 2 C-5.06028115 0.45664761 -3.33156142 0 0 0 Z " fill="#2C2C2D" transform="translate(164,211)"/>
<path d="M0 0 C3.39417765 3.12621626 5.6062718 5.56541027 7 10 C6.01 10.33 5.02 10.66 4 11 C3.34 10.34 2.68 9.68 2 9 C1.01 9.33 0.02 9.66 -1 10 C-0.67 10.99 -0.34 11.98 0 13 C-3.37503669 11.8141763 -5.64722731 10.72426311 -8 8 C-6.02 7.34 -4.04 6.68 -2 6 C-2 4.68 -2 3.36 -2 2 C-1.34 2 -0.68 2 0 2 C0 1.34 0 0.68 0 0 Z " fill="#17191A" transform="translate(119,117)"/>
<path d="M0 0 C1.32 0.66 2.64 1.32 4 2 C3.01 2.495 3.01 2.495 2 3 C1.01 2.67 0.02 2.34 -1 2 C1.986287 8.73785919 1.986287 8.73785919 7 14 C8.32 14 9.64 14 11 14 C11 14.66 11 15.32 11 16 C9.35 16 7.7 16 6 16 C5.67 16.66 5.34 17.32 5 18 C3.5125035 16.25707481 2.03527508 14.50538246 0.5625 12.75 C-0.26121094 11.77546875 -1.08492188 10.8009375 -1.93359375 9.796875 C-3.74849057 7.3404173 -4.61157441 5.96615903 -5 3 C-4.34 3 -3.68 3 -3 3 C-1.37485532 1.54166642 -1.37485532 1.54166642 0 0 Z " fill="#D9D9D9" transform="translate(269,254)"/>
<path d="M0 0 C0 1.65 0 3.3 0 5 C0.66 5 1.32 5 2 5 C3.38232443 6.62626404 4.71937515 8.2925002 6 10 C5.34 10.66 4.68 11.32 4 12 C3.67 11.01 3.34 10.02 3 9 C1.03422541 8.08359427 1.03422541 8.08359427 -1.3125 7.5 C-4.74770682 6.46615591 -7.30407291 5.46149865 -10 3 C-6.48812804 0.59185923 -4.27343092 -0.36629408 0 0 Z " fill="#E3E5E4" transform="translate(114,148)"/>
<path d="M0 0 C0.144375 0.61875 0.28875 1.2375 0.4375 1.875 C0.93152225 4.03258322 0.93152225 4.03258322 2 6 C3 8 3 8 2.00390625 11.4765625 C1.53099953 12.86197936 1.05018356 14.24471547 0.5625 15.625 C0.31951172 16.33140625 0.07652344 17.0378125 -0.17382812 17.765625 C-0.77587205 19.51273287 -1.38708017 21.25667786 -2 23 C-2.99 22.34 -3.98 21.68 -5 21 C-3.68882339 13.88879511 -1.98279484 6.95300057 0 0 Z " fill="#BABEBF" transform="translate(146,223)"/>
<path d="M0 0 C-1.47635108 4.87195858 -4.25951591 8.60704255 -8 12 C-10.875 12.9375 -10.875 12.9375 -13 13 C-12.46348047 8.96685318 -10.45798792 7.05548319 -7.625 4.25 C-6.83351562 3.45078125 -6.04203125 2.6515625 -5.2265625 1.828125 C-3 0 -3 0 0 0 Z " fill="#202021" transform="translate(226,120)"/>
<path d="M0 0 C2.29199177 0.14063135 4.58359186 0.28765943 6.875 0.4375 C8.15117187 0.51871094 9.42734375 0.59992188 10.7421875 0.68359375 C14 1 14 1 16 2 C16 2.99 16 3.98 16 5 C13.70839681 5.02692484 11.41670454 5.04636124 9.125 5.0625 C7.84882813 5.07410156 6.57265625 5.08570313 5.2578125 5.09765625 C2 5 2 5 0 4 C0 2.68 0 1.36 0 0 Z " fill="#131313" transform="translate(160,187)"/>
<path d="M0 0 C0.99 0 1.98 0 3 0 C3.33 0.66 3.66 1.32 4 2 C1.03 6.29 -1.94 10.58 -5 15 C-5.66 14.01 -6.32 13.02 -7 12 C-9.05003955 10.80767387 -9.05003955 10.80767387 -11 10 C-10.113125 9.649375 -9.22625 9.29875 -8.3125 8.9375 C-4.67282245 6.808632 -3.30063393 4.95259858 -1.17578125 1.42578125 C-0.78777344 0.95527344 -0.39976562 0.48476562 0 0 Z " fill="#E4E6E5" transform="translate(224,123)"/>
<path d="M0 0 C3.26008643 3.16952847 6.22237877 6.39937989 9 10 C7.35 10.66 5.7 11.32 4 12 C1.03 9.36 -1.94 6.72 -5 4 C-3.68 3.34 -2.36 2.68 -1 2 C-0.67 1.34 -0.34 0.68 0 0 Z " fill="#D5D7D6" transform="translate(101,89)"/>
<path d="M0 0 C0.99 0.33 1.98 0.66 3 1 C3 1.99 3 2.98 3 4 C3.66 4 4.32 4 5 4 C4.39254603 8.85963179 2.27241033 12.7405518 0 17 C-0.66 16.67 -1.32 16.34 -2 16 C-1.34 10.72 -0.68 5.44 0 0 Z " fill="#E1E2E2" transform="translate(148,213)"/>
<path d="M0 0 C0.66 0 1.32 0 2 0 C2.66523639 3.74195471 3 7.20436828 3 11 C2.34 11 1.68 11 1 11 C0.67 12.65 0.34 14.3 0 16 C-0.99 16 -1.98 16 -3 16 C-3 12.37 -3 8.74 -3 5 C-1.68 4.67 -0.36 4.34 1 4 C0.67 2.68 0.34 1.36 0 0 Z " fill="#020504" transform="translate(145,154)"/>
<path d="M0 0 C1.32 0.66 2.64 1.32 4 2 C3.98839844 3.16917969 3.97679687 4.33835937 3.96484375 5.54296875 C3.95546087 7.09114423 3.9463612 8.63932145 3.9375 10.1875 C3.92912109 10.95642578 3.92074219 11.72535156 3.91210938 12.51757812 C3.89508066 16.48526789 4.01395885 20.12571234 5 24 C4.34 23.67 3.68 23.34 3 23 C2.3671875 20.05859375 2.3671875 20.05859375 1.875 16.4375 C1.70742187 15.23996094 1.53984375 14.04242188 1.3671875 12.80859375 C1.24601563 11.88175781 1.12484375 10.95492187 1 10 C0.01 10.66 -0.98 11.32 -2 12 C-2.28571429 3.42857143 -2.28571429 3.42857143 0 0 Z " fill="#D3D6D5" transform="translate(168,86)"/>
<path d="M0 0 C1.14926266 0.95421808 2.29430541 1.91352045 3.4375 2.875 C4.39462891 3.67550781 4.39462891 3.67550781 5.37109375 4.4921875 C7 6 7 6 8 8 C7.38125 8.12375 6.7625 8.2475 6.125 8.375 C3.80879168 8.87197356 3.80879168 8.87197356 2 11 C0.02 9.68 -1.96 8.36 -4 7 C-3.01 6.67 -2.02 6.34 -1 6 C-1.33 5.01 -1.66 4.02 -2 3 C-1.34 2.01 -0.68 1.02 0 0 Z " fill="#E0E2E1" transform="translate(219,208)"/>
<path d="M0 0 C4.04160556 -0.05831395 8.08310205 -0.09370212 12.125 -0.125 C13.83816406 -0.15013672 13.83816406 -0.15013672 15.5859375 -0.17578125 C16.69453125 -0.18222656 17.803125 -0.18867188 18.9453125 -0.1953125 C20.46922607 -0.21102295 20.46922607 -0.21102295 22.02392578 -0.22705078 C25.34391206 0.02623775 27.94886064 0.66674289 31 2 C32.375 5.125 32.375 5.125 33 8 C31.68 7.01 30.36 6.02 29 5 C28.01 5.99 27.02 6.98 26 8 C26 6.35 26 4.7 26 3 C20.55547082 1.92375586 15.15417411 1.67807034 9.625 1.4375 C8.69816406 1.39431641 7.77132812 1.35113281 6.81640625 1.30664062 C4.54439706 1.20123814 2.27229075 1.09911394 0 1 C0 0.67 0 0.34 0 0 Z " fill="#505253" transform="translate(88,179)"/>
<path d="M0 0 C2.31 0 4.62 0 7 0 C7.38218767 1.65614657 7.71395102 3.32457024 8 5 C7 6 7 6 4.71484375 6.09765625 C3.34005859 6.08025391 3.34005859 6.08025391 1.9375 6.0625 C1.01839844 6.05347656 0.09929687 6.04445312 -0.84765625 6.03515625 C-1.55792969 6.02355469 -2.26820313 6.01195312 -3 6 C-2.01 4.02 -1.02 2.04 0 0 Z " fill="#FBFDFC" transform="translate(168,145)"/>
<path d="M0 0 C3.9252025 3.70090521 6.94580156 7.54959656 10 12 C9.34 12 8.68 12 8 12 C7.67 12.99 7.34 13.98 7 15 C6.01 14.67 5.02 14.34 4 14 C2.89748835 10.69246505 1.94933899 7.35433109 1 4 C0.34 4 -0.32 4 -1 4 C-0.67 2.68 -0.34 1.36 0 0 Z " fill="#191A1B" transform="translate(262,257)"/>
<path d="M0 0 C0.33 0.66 0.66 1.32 1 2 C1.99 2.33 2.98 2.66 4 3 C1.69 5.31 -0.62 7.62 -3 10 C-4.98 9.01 -6.96 8.02 -9 7 C-6.3765992 4.08511023 -3.28183606 2.11496102 0 0 Z " fill="#D7D7D9" transform="translate(217,120)"/>
<path d="M0 0 C0.66 0 1.32 0 2 0 C2.4375 2.0625 2.4375 2.0625 2 5 C-0.07017366 7.62982691 -2.36690452 9.93284133 -5 12 C-5.66 12 -6.32 12 -7 12 C-7.33 10.02 -7.66 8.04 -8 6 C-6.68 6 -5.36 6 -4 6 C-4 5.01 -4 4.02 -4 3 C-3.01 3 -2.02 3 -1 3 C-0.67 2.01 -0.34 1.02 0 0 Z " fill="#EEF1F2" transform="translate(101,218)"/>
<path d="M0 0 C0.33 0.99 0.66 1.98 1 3 C1.66 3.33 2.32 3.66 3 4 C2.01 4.495 2.01 4.495 1 5 C0.34444881 7.52733235 0.34444881 7.52733235 0 10 C-0.99 10 -1.98 10 -3 10 C-3 10.99 -3 11.98 -3 13 C-4.98 13.99 -4.98 13.99 -7 15 C-6.68383092 8.83470299 -3.50784939 4.82731567 0 0 Z " fill="#17191A" transform="translate(221,134)"/>
<path d="M0 0 C0.99 0 1.98 0 3 0 C3.33 1.32 3.66 2.64 4 4 C4.66 4 5.32 4 6 4 C6 3.01 6 2.02 6 1 C6.99 1.33 7.98 1.66 9 2 C8.67 3.98 8.34 5.96 8 8 C8.66 8.33 9.32 8.66 10 9 C8.68 9.33 7.36 9.66 6 10 C3.69 7.36 1.38 4.72 -1 2 C-0.67 1.34 -0.34 0.68 0 0 Z " fill="#131414" transform="translate(110,96)"/>
<path d="M0 0 C3.29696105 1.09898702 4.04670589 1.94597387 6.1875 4.5625 C6.71730469 5.20316406 7.24710938 5.84382812 7.79296875 6.50390625 C8.19128906 6.99761719 8.58960937 7.49132812 9 8 C6 9 6 9 3.8125 8.0625 C3.214375 7.711875 2.61625 7.36125 2 7 C2 8.98 2 10.96 2 13 C1.67 13 1.34 13 1 13 C0.87625 12.195625 0.7525 11.39125 0.625 10.5625 C0.315625 9.2940625 0.315625 9.2940625 0 8 C-0.66 7.67 -1.32 7.34 -2 7 C-1.42415568 4.61435923 -0.77772405 2.33317216 0 0 Z " fill="#1B1C1D" transform="translate(114,156)"/>
<path d="M0 0 C0.66 0.33 1.32 0.66 2 1 C2.375 3.6875 2.375 3.6875 2 7 C0.176017 9.06398076 -1.72763839 10.39041053 -4 12 C-4.66 11.34 -5.32 10.68 -6 10 C-5.38302681 8.51746733 -4.75616104 7.03904826 -4.125 5.5625 C-3.60292969 4.32693359 -3.60292969 4.32693359 -3.0703125 3.06640625 C-2 1 -2 1 0 0 Z " fill="#EFF2F3" transform="translate(249,92)"/>
<path d="M0 0 C0.99 0.33 1.98 0.66 3 1 C3 1.99 3 2.98 3 4 C3.66 4 4.32 4 5 4 C5 4.66 5 5.32 5 6 C4.360625 6.103125 3.72125 6.20625 3.0625 6.3125 C2.381875 6.539375 1.70125 6.76625 1 7 C0.67 7.99 0.34 8.98 0 10 C-1.32 9.67 -2.64 9.34 -4 9 C-3.67 7.35 -3.34 5.7 -3 4 C-2.34 4 -1.68 4 -1 4 C-0.67 2.68 -0.34 1.36 0 0 Z " fill="#F7F8F9" transform="translate(266,248)"/>
<path d="M0 0 C2 3.75 2 3.75 2 6 C1.01 6 0.02 6 -1 6 C-1 7.32 -1 8.64 -1 10 C-0.34 10 0.32 10 1 10 C1 10.66 1 11.32 1 12 C-0.175625 12.185625 -0.175625 12.185625 -1.375 12.375 C-4.14057822 12.79117993 -4.14057822 12.79117993 -6 15 C-7 12 -7 12 -5.56640625 9.08203125 C-4.90511719 8.00308594 -4.24382812 6.92414063 -3.5625 5.8125 C-2.90378906 4.72582031 -2.24507813 3.63914063 -1.56640625 2.51953125 C-1.04949219 1.68808594 -0.53257813 0.85664063 0 0 Z " fill="#161718" transform="translate(86,241)"/>
<path d="M0 0 C0.474375 0.639375 0.94875 1.27875 1.4375 1.9375 C2.83738726 3.88293306 2.83738726 3.88293306 4 5 C5.34270821 6.99371825 6.67653494 8.9934562 8 11 C7.34 12.32 6.68 13.64 6 15 C3.03 11.04 0.06 7.08 -3 3 C-2.01 2.01 -1.02 1.02 0 0 Z " fill="#0D1112" transform="translate(236,265)"/>
<path d="M0 0 C7 8.75 7 8.75 7 13 C5 14.625 5 14.625 3 16 C2.06576355 12.98968256 1.95550089 12.13349732 3 9 C2.01 8.67 1.02 8.34 0 8 C-1.125 2.25 -1.125 2.25 0 0 Z " fill="#181C1D" transform="translate(225,263)"/>
<path d="M0 0 C0 1.65 0 3.3 0 5 C0.99 5.33 1.98 5.66 3 6 C3 6.66 3 7.32 3 8 C-1.7517398 7.56802365 -3.92000054 6.67230705 -7 3 C-6.34 2.67 -5.68 2.34 -5 2 C-5.33 1.34 -5.66 0.68 -6 0 C-3.50907189 -1.24546405 -2.58919267 -0.7767578 0 0 Z " fill="#242625" transform="translate(137,114)"/>
<path d="M0 0 C-0.1875 2.375 -0.1875 2.375 -1 5 C-3.5625 6.3125 -3.5625 6.3125 -6 7 C-6.99 5.68 -7.98 4.36 -9 3 C-6.27596221 -1.08605669 -4.4643819 -1.38549783 0 0 Z " fill="#F7F8F8" transform="translate(240,107)"/>
<path d="M0 0 C0.33 0.66 0.66 1.32 1 2 C1.62261719 2.28875 2.24523437 2.5775 2.88671875 2.875 C5.43246479 4.23022155 6.32411674 5.55383537 7.8125 8 C8.25207031 8.70125 8.69164062 9.4025 9.14453125 10.125 C9.42683594 10.74375 9.70914063 11.3625 10 12 C9.67 12.66 9.34 13.32 9 14 C8.01 14 7.02 14 6 14 C4.9923048 12.2335343 3.99408286 10.46166177 3 8.6875 C2.443125 7.70136719 1.88625 6.71523437 1.3125 5.69921875 C0 3 0 3 0 0 Z " fill="#DDE1E2" transform="translate(216,244)"/>
<path d="M0 0 C0.33 0 0.66 0 1 0 C1.33 2.64 1.66 5.28 2 8 C2.99 7.67 3.98 7.34 5 7 C5.66 7.33 6.32 7.66 7 8 C7 10.31 7 12.62 7 15 C6.34 13.68 5.68 12.36 5 11 C4.67 13.31 4.34 15.62 4 18 C0.63319945 13.60852102 -0.1219505 11.46334737 -0.0625 5.875 C-0.05347656 4.77929688 -0.04445312 3.68359375 -0.03515625 2.5546875 C-0.02355469 1.71164063 -0.01195312 0.86859375 0 0 Z " fill="#474948" transform="translate(141,160)"/>
<path d="M0 0 C0.66 0 1.32 0 2 0 C3.83691257 3.78187881 4.15837626 5.94568308 3 10 C3.78375 10.144375 4.5675 10.28875 5.375 10.4375 C8 11 8 11 10 12 C10 12.66 10 13.32 10 14 C8.35 14.33 6.7 14.66 5 15 C1.10815152 10.57744491 0 5.80705928 0 0 Z " fill="#1B1E1E" transform="translate(146,100)"/>
<path d="M0 0 C-0.52320367 3.76706644 -1.27388801 6.27388801 -4 9 C-5.32 9 -6.64 9 -8 9 C-7.64598897 5.81390075 -7.16972964 4.20933322 -5.125 1.6875 C-3 0 -3 0 0 0 Z " fill="#101010" transform="translate(86,232)"/>
<path d="M0 0 C3.38828322 0.33882832 5.39406957 1.91525566 8 4 C8.66 4.33 9.32 4.66 10 5 C10.625 7.0625 10.625 7.0625 11 9 C5.55791766 8.65986985 2.06331802 5.29703472 -2 2 C-1.34 1.34 -0.68 0.68 0 0 Z " fill="#1A1C1E" transform="translate(197,118)"/>
<path d="M0 0 C2.5 2.3125 2.5 2.3125 5 5 C5 5.99 5 6.98 5 8 C4.01 8 3.02 8 2 8 C1.01 8.66 0.02 9.32 -1 10 C-4 4.25 -4 4.25 -4 2 C-3.01 2.33 -2.02 2.66 -1 3 C-0.67 2.01 -0.34 1.02 0 0 Z " fill="#D9DDDE" transform="translate(236,272)"/>
<path d="M0 0 C3.97497544 3.40712181 5.86793788 7.32760855 8 12 C6.02 12 4.04 12 2 12 C2 10.68 2 9.36 2 8 C1.34 8 0.68 8 0 8 C0 7.01 0 6.02 0 5 C-0.66 4.67 -1.32 4.34 -2 4 C-1.34 2.68 -0.68 1.36 0 0 Z " fill="#252628" transform="translate(204,228)"/>
<path d="M0 0 C2.3125 0.125 2.3125 0.125 5 1 C7.36101949 4.66365093 8 6.59781468 8 11 C7.34 11 6.68 11 6 11 C4.4921875 9.35546875 4.4921875 9.35546875 2.875 7.1875 C2.06675781 6.12595703 2.06675781 6.12595703 1.2421875 5.04296875 C0 3 0 3 0 0 Z " fill="#DCDDDF" transform="translate(202,223)"/>
<path d="M0 0 C1.32 0.99 2.64 1.98 4 3 C-0.455 6.96 -0.455 6.96 -5 11 C-5.99 10.67 -6.98 10.34 -8 10 C-7.67 9.34 -7.34 8.68 -7 8 C-6.731875 7.319375 -6.46375 6.63875 -6.1875 5.9375 C-5 4 -5 4 -2.9375 3.4375 C-2.298125 3.293125 -1.65875 3.14875 -1 3 C-0.67 2.01 -0.34 1.02 0 0 Z " fill="#111415" transform="translate(225,108)"/>
<path d="M0 0 C4.92307692 4.30769231 4.92307692 4.30769231 5.3125 7.8125 C5.209375 8.534375 5.10625 9.25625 5 10 C2.625 9.375 2.625 9.375 0 8 C-1.3125 4.875 -1.3125 4.875 -2 2 C-1.34 1.34 -0.68 0.68 0 0 Z " fill="#EDF0F1" transform="translate(231,266)"/>
<path d="M0 0 C2.31 1.65 4.62 3.3 7 5 C5.515 7.475 5.515 7.475 4 10 C1.36 8.02 -1.28 6.04 -4 4 C-2.68 3.34 -1.36 2.68 0 2 C0 1.34 0 0.68 0 0 Z " fill="#E5E6E7" transform="translate(242,229)"/>
<path d="M0 0 C4.69564393 3.31457218 7.72469104 7.36279281 11 12 C6.71193127 11.52354792 4.73352513 10.34097516 2 7 C2 6.34 2 5.68 2 5 C1.34 5 0.68 5 0 5 C0 3.35 0 1.7 0 0 Z " fill="#1A1C1D" transform="translate(106,102)"/>
<path d="M0 0 C2.3925 0.061875 4.785 0.12375 7.25 0.1875 C7.25 5.4675 7.25 10.7475 7.25 16.1875 C6.92 16.1875 6.59 16.1875 6.25 16.1875 C6.25 11.2375 6.25 6.2875 6.25 1.1875 C3.094375 1.373125 3.094375 1.373125 -0.125 1.5625 C-1.90003906 1.66691406 -1.90003906 1.66691406 -3.7109375 1.7734375 C-6.85562319 1.88967346 -6.85562319 1.88967346 -8.75 4.1875 C-9.74 3.8575 -10.73 3.5275 -11.75 3.1875 C-8.17471612 -0.32328134 -4.72573969 -0.17285561 0 0 Z " fill="#2E2F2E" transform="translate(276.75,80.8125)"/>
<path d="M0 0 C3.7910119 1.44950455 7.3874638 3.15172566 11 5 C11 5.33 11 5.66 11 6 C7.7 6.33 4.4 6.66 1 7 C0 3 0 3 0 0 Z " fill="#0F1110" transform="translate(137,208)"/>
<path d="M0 0 C3.44165321 0.35299007 5.06872538 1.04581692 8 3 C7.34 3 6.68 3 6 3 C6 4.32 6 5.64 6 7 C0.25 5.375 0.25 5.375 -2 2 C-1.34 1.34 -0.68 0.68 0 0 Z " fill="#242625" transform="translate(154,184)"/>
<path d="M0 0 C1.5625 1.625 1.5625 1.625 3 4 C2.6875 7.25 2.6875 7.25 2 10 C1.34 10 0.68 10 0 10 C0 9.01 0 8.02 0 7 C-0.66 7 -1.32 7 -2 7 C-2.33 7.99 -2.66 8.98 -3 10 C-3.66 9.67 -4.32 9.34 -5 9 C-3.50163895 5.88801935 -1.80066242 2.9465385 0 0 Z " fill="#171B1A" transform="translate(227,125)"/>
<path d="M0 0 C4.75481646 0.57634139 7.97048212 2.55068521 12 5 C12 5.99 12 6.98 12 8 C6.73610189 7.68097587 3.55597551 4.60721435 0 1 C0 0.67 0 0.34 0 0 Z " fill="#E2E6E7" transform="translate(107,125)"/>
<path d="M0 0 C3.80635497 3.20760251 7.54563567 6.40746109 11 10 C10.01 10.495 10.01 10.495 9 11 C6.875 10.0625 6.875 10.0625 5 9 C5 8.34 5 7.68 5 7 C4.34 7 3.68 7 3 7 C3 6.34 3 5.68 3 5 C1.68 4.34 0.36 3.68 -1 3 C-0.67 2.01 -0.34 1.02 0 0 Z " fill="#151719" transform="translate(232,227)"/>
<path d="M0 0 C0.66 0.33 1.32 0.66 2 1 C2 1.66 2 2.32 2 3 C2.99 4.485 2.99 4.485 4 6 C2.35 7.98 0.7 9.96 -1 12 C-2.1875 10.5 -2.1875 10.5 -3 8 C-2.27101296 5.21175762 -1.1843275 2.62334908 0 0 Z " fill="#121416" transform="translate(114,196)"/>
<path d="M0 0 C-0.59927826 3.35595828 -1.84622436 5.37801226 -4 8 C-5.32 7.67 -6.64 7.34 -8 7 C-8 5.33333333 -8 3.66666667 -8 2 C-2.25 0 -2.25 0 0 0 Z " fill="#0D1011" transform="translate(241,96)"/>
<path d="M0 0 C0.99 0.66 1.98 1.32 3 2 C1.25 5.875 1.25 5.875 -1 7 C-1.99 8.485 -1.99 8.485 -3 10 C-4.65 8.02 -6.3 6.04 -8 4 C-7.236875 3.855625 -6.47375 3.71125 -5.6875 3.5625 C-2.91827092 3.0367406 -2.91827092 3.0367406 0 2 C0 1.34 0 0.68 0 0 Z " fill="#E9EAEC" transform="translate(264,246)"/>
<path d="M0 0 C1.65 0 3.3 0 5 0 C5.103125 0.639375 5.20625 1.27875 5.3125 1.9375 C5.539375 2.618125 5.76625 3.29875 6 4 C6.99 4.33 7.98 4.66 9 5 C9 5.66 9 6.32 9 7 C9.66 7.33 10.32 7.66 11 8 C10.01 8.495 10.01 8.495 9 9 C5.7 6.69 2.4 4.38 -1 2 C-0.67 1.34 -0.34 0.68 0 0 Z " fill="#1D2021" transform="translate(262,242)"/>
<path d="M0 0 C2.4375 0.8125 2.4375 0.8125 5 2 C5.33 2.99 5.66 3.98 6 5 C5.34 5 4.68 5 4 5 C4 5.66 4 6.32 4 7 C1.36 6.67 -1.28 6.34 -4 6 C-3.01 5.34 -2.02 4.68 -1 4 C-1.33 3.34 -1.66 2.68 -2 2 C-1.34 1.34 -0.68 0.68 0 0 Z " fill="#DCDDDE" transform="translate(86,139)"/>
<path d="M0 0 C4.8 2.46153846 4.8 2.46153846 5.8125 5.1875 C5.874375 5.785625 5.93625 6.38375 6 7 C1.78087253 6.5205537 -0.79663178 5.83374881 -4 3 C-2.68 2.01 -1.36 1.02 0 0 Z " fill="#E2E5E6" transform="translate(81,105)"/>
<path d="M0 0 C3.39417765 3.12621626 5.6062718 5.56541027 7 10 C6.01 10.33 5.02 10.66 4 11 C3.34 10.34 2.68 9.68 2 9 C1.01 9.495 1.01 9.495 0 10 C0 6.7 0 3.4 0 0 Z " fill="#1E201F" transform="translate(119,117)"/>
<path d="M0 0 C0.33 0 0.66 0 1 0 C0.67 4.62 0.34 9.24 0 14 C-0.33 14 -0.66 14 -1 14 C-1.33 12.02 -1.66 10.04 -2 8 C-2.99 8 -3.98 8 -5 8 C-4.67 6.68 -4.34 5.36 -4 4 C-3.34 4 -2.68 4 -2 4 C-1.34 2.68 -0.68 1.36 0 0 Z " fill="#E8E9EA" transform="translate(139,258)"/>
<path d="M0 0 C0 5.23006352 -1.1211192 8.61909443 -4 13 C-5 10 -5 10 -5 9 C-5.66 8.67 -6.32 8.34 -7 8 C-4.69 5.36 -2.38 2.72 0 0 Z " fill="#E4E5E6" transform="translate(119,200)"/>
<path d="M0 0 C0.66 0.33 1.32 0.66 2 1 C0.68 1.33 -0.64 1.66 -2 2 C-2 3.65 -2 5.3 -2 7 C-4.31 6.67 -6.62 6.34 -9 6 C-9 5.67 -9 5.34 -9 5 C-11.97 4.505 -11.97 4.505 -15 4 C-15 3.67 -15 3.34 -15 3 C-14.00419922 2.92652344 -14.00419922 2.92652344 -12.98828125 2.8515625 C-8.26008988 2.45121929 -4.38156137 1.9169331 0 0 Z " fill="#343434" transform="translate(180,184)"/>
<path d="M0 0 C5.875 4.625 5.875 4.625 7 8 C3.625 7.6875 3.625 7.6875 0 7 C-0.66 6.01 -1.32 5.02 -2 4 C-1.34 2.68 -0.68 1.36 0 0 Z " fill="#0D1010" transform="translate(249,282)"/>
<path d="M0 0 C0.99 0.66 1.98 1.32 3 2 C2.67 4.31 2.34 6.62 2 9 C0.35 9.66 -1.3 10.32 -3 11 C-1.125 3.375 -1.125 3.375 0 0 Z " fill="#101415" transform="translate(148,231)"/>
<path d="M0 0 C0.66 0.66 1.32 1.32 2 2 C-0.64 4.31 -3.28 6.62 -6 9 C-6.99 8.34 -7.98 7.68 -9 7 C-8.34 7 -7.68 7 -7 7 C-7 6.34 -7 5.68 -7 5 C-7.66 4.67 -8.32 4.34 -9 4 C-7.68 4 -6.36 4 -5 4 C-2.26780807 2.08140833 -2.26780807 2.08140833 0 0 Z " fill="#E3E4E5" transform="translate(110,213)"/>
<path d="M0 0 C0.66 0.66 1.32 1.32 2 2 C0.625 3.5 0.625 3.5 -1 5 C-1.66 5 -2.32 5 -3 5 C-3 5.66 -3 6.32 -3 7 C-6.63 7 -10.26 7 -14 7 C-14 6.67 -14 6.34 -14 6 C-10.7 6 -7.4 6 -4 6 C-4.99 5.34 -5.98 4.68 -7 4 C-4.69 2.68 -2.38 1.36 0 0 Z " fill="#242526" transform="translate(177,169)"/>
<path d="M0 0 C0.66 0.99 1.32 1.98 2 3 C1.67 3.66 1.34 4.32 1 5 C1.66 5.33 2.32 5.66 3 6 C1 8 1 8 -1.625 8.125 C-2.40875 8.08375 -3.1925 8.0425 -4 8 C-1.125 1.125 -1.125 1.125 0 0 Z M3 0 C3.33 0.66 3.66 1.32 4 2 C3.34 1.67 2.68 1.34 2 1 C2.33 0.67 2.66 0.34 3 0 Z " fill="#030707" transform="translate(115,117)"/>
<path d="M0 0 C0.33 0.66 0.66 1.32 1 2 C-1.33333333 4.33333333 -3.66666667 6.66666667 -6 9 C-6.69748583 10.31747324 -7.36959957 11.64914193 -8 13 C-9.32 12.67 -10.64 12.34 -12 12 C-8.04 8.04 -4.08 4.08 0 0 Z " fill="#202223" transform="translate(258,91)"/>
<path d="M0 0 C0 3.38023517 -0.87455622 5.83468937 -2 9 C-2.33 8.34 -2.66 7.68 -3 7 C-3.66 7 -4.32 7 -5 7 C-5.66 8.32 -6.32 9.64 -7 11 C-7.66 10.34 -8.32 9.68 -9 9 C-6.03 6.03 -3.06 3.06 0 0 Z " fill="#D1D5D6" transform="translate(246,93)"/>
<path d="M0 0 C1.32 0.33 2.64 0.66 4 1 C1.03 3.97 -1.94 6.94 -5 10 C-5.33 9.01 -5.66 8.02 -6 7 C-5.34 6.01 -4.68 5.02 -4 4 C-3.34 4.33 -2.68 4.66 -2 5 C-1.855625 4.360625 -1.71125 3.72125 -1.5625 3.0625 C-1 1 -1 1 0 0 Z " fill="#E2E5E5" transform="translate(257,88)"/>
<path d="M0 0 C0 0.66 0 1.32 0 2 C-0.99 2.495 -0.99 2.495 -2 3 C-2.33 3.99 -2.66 4.98 -3 6 C-4.65 6 -6.3 6 -8 6 C-8 4.68 -8 3.36 -8 2 C-5.09399739 0.74335022 -3.20395416 0 0 0 Z " fill="#3A3A3A" transform="translate(164,211)"/>
<path d="M0 0 C0.33 1.65 0.66 3.3 1 5 C-0.60495567 4.88557539 -2.20898119 4.75805306 -3.8125 4.625 C-4.70582031 4.55539063 -5.59914063 4.48578125 -6.51953125 4.4140625 C-9 4 -9 4 -12 2 C-9.36 2.33 -6.72 2.66 -4 3 C-4 2.34 -4 1.68 -4 1 C-2 0 -2 0 0 0 Z " fill="#2F3130" transform="translate(118,144)"/>
<path d="M0 0 C-0.99 2.97 -1.98 5.94 -3 9 C-3.99 9 -4.98 9 -6 9 C-5.6875 5.625 -5.6875 5.625 -5 2 C-2 0 -2 0 0 0 Z " fill="#F3F4F6" transform="translate(152,220)"/>
<path d="M0 0 C2.475 0.99 2.475 0.99 5 2 C2.45543849 4.96865509 -0.48994665 6.3619751 -4 8 C-3.67 6.68 -3.34 5.36 -3 4 C-2.34 4 -1.68 4 -1 4 C-0.67 2.68 -0.34 1.36 0 0 Z " fill="#181A1A" transform="translate(93,217)"/>
<path d="M0 0 C0.99 0 1.98 0 3 0 C2.75 2.375 2.75 2.375 2 5 C-0.56310828 6.7941758 -1.83119306 7 -5 7 C-4.6875 5.0625 -4.6875 5.0625 -4 3 C-3.01 2.67 -2.02 2.34 -1 2 C-0.67 1.34 -0.34 0.68 0 0 Z " fill="#0D0D0D" transform="translate(182,183)"/>
<path d="M0 0 C3.08089673 2.77280706 4.68775452 5.06326356 6 9 C5.01 9.33 4.02 9.66 3 10 C-1.06153846 4.58461538 -1.06153846 4.58461538 -0.75 1.625 C-0.5025 1.08875 -0.255 0.5525 0 0 Z " fill="#1F2021" transform="translate(275,274)"/>
<path d="M0 0 C2.97 0.99 5.94 1.98 9 3 C6.4345406 5.5654594 4.52313332 5.54046087 1 6 C0 3 0 3 0 0 Z " fill="#0E1010" transform="translate(104,152)"/>
<path d="M0 0 C2.70272533 2.87164566 3.94791837 4.30991841 4.25 8.3125 C4.1675 9.199375 4.085 10.08625 4 11 C1.59927045 8.11912454 -0.47291037 5.43595166 -2 2 C-1.34 1.34 -0.68 0.68 0 0 Z " fill="#171B1C" transform="translate(227,253)"/>
<path d="M0 0 C2.97 1.98 2.97 1.98 6 4 C4.68 5.32 3.36 6.64 2 8 C1.01 7.34 0.02 6.68 -1 6 C-0.67 4.02 -0.34 2.04 0 0 Z " fill="#E6E7E8" transform="translate(230,219)"/>
<path d="M0 0 C2.1640625 0.99609375 2.1640625 0.99609375 4.625 2.4375 C5.85089844 3.14712891 5.85089844 3.14712891 7.1015625 3.87109375 C7.72804687 4.24363281 8.35453125 4.61617187 9 5 C7.02 5.99 7.02 5.99 5 7 C4.67 6.01 4.34 5.02 4 4 C3.195625 3.87625 2.39125 3.7525 1.5625 3.625 C0.716875 3.41875 -0.12875 3.2125 -1 3 C-1.33 2.34 -1.66 1.68 -2 1 C-1.34 0.67 -0.68 0.34 0 0 Z " fill="#0E1212" transform="translate(215,215)"/>
<path d="M0 0 C-0.25 1.875 -0.25 1.875 -1 4 C-3.0625 5.25 -3.0625 5.25 -5 6 C-6.5 4.625 -6.5 4.625 -8 3 C-8 2.34 -8 1.68 -8 1 C-5.07175348 0.02391783 -3.04386724 -0.08226668 0 0 Z " fill="#111415" transform="translate(105,212)"/>
<path d="M0 0 C1.65 1.32 3.3 2.64 5 4 C4.67 4.66 4.34 5.32 4 6 C4.66 6.33 5.32 6.66 6 7 C0.46153846 6.38461538 0.46153846 6.38461538 -1.875 4.4375 C-2.24625 3.963125 -2.6175 3.48875 -3 3 C-2.01 2.01 -1.02 1.02 0 0 Z " fill="#2B2E30" transform="translate(231,121)"/>
<path d="M0 0 C0.33 0.66 0.66 1.32 1 2 C1.66 2 2.32 2 3 2 C3.66 3.98 4.32 5.96 5 8 C1.46627288 6.03681826 -1.24479785 3.95929119 -4 1 C-2.68 0.67 -1.36 0.34 0 0 Z " fill="#292B2A" transform="translate(125,109)"/>
<path d="M0 0 C0.99 0 1.98 0 3 0 C3.28875 0.61875 3.5775 1.2375 3.875 1.875 C4.93720042 4.13325765 4.93720042 4.13325765 7 6 C5.02 6.99 5.02 6.99 3 8 C0 3.375 0 3.375 0 0 Z " fill="#17181B" transform="translate(156,164)"/>
<path d="M0 0 C0 0.66 0 1.32 0 2 C0.99 2.33 1.98 2.66 3 3 C2.0925 3.28875 1.185 3.5775 0.25 3.875 C-2.32202908 4.76531776 -4.61346766 5.71494413 -7 7 C-7 6.01 -7 5.02 -7 4 C-6.34 4 -5.68 4 -5 4 C-4.67 3.01 -4.34 2.02 -4 1 C-2 0 -2 0 0 0 Z " fill="#111514" transform="translate(153,161)"/>
<path d="M0 0 C0 1.65 0 3.3 0 5 C-3.51716303 5 -4.37121748 4.17554415 -7 2 C-4 0 -4 0 0 0 Z " fill="#E5E5E5" transform="translate(215,124)"/>
<path d="M0 0 C2.64 0.33 5.28 0.66 8 1 C7.67 1.99 7.34 2.98 7 4 C5.125 4.875 5.125 4.875 3 5 C1.25 3.6875 1.25 3.6875 0 2 C0 1.34 0 0.68 0 0 Z " fill="#F7F9F8" transform="translate(101,146)"/>
<path d="M0 0 C0.33 0.66 0.66 1.32 1 2 C2.98 2 4.96 2 7 2 C6.67 3.65 6.34 5.3 6 7 C3.5625 6.3125 3.5625 6.3125 1 5 C0.1875 2.375 0.1875 2.375 0 0 Z " fill="#15191A" transform="translate(77,130)"/>
<path d="M0 0 C0.66 0.33 1.32 0.66 2 1 C1.01 2.32 0.02 3.64 -1 5 C-0.34 5.66 0.32 6.32 1 7 C-1.31 7.33 -3.62 7.66 -6 8 C-4.73058503 4.08597051 -3.48832306 2.20927127 0 0 Z " fill="#CFD2D3" transform="translate(241,119)"/>
<path d="M0 0 C6.875 3.75 6.875 3.75 8 6 C5.03 5.505 5.03 5.505 2 5 C1.67 5.66 1.34 6.32 1 7 C0.67 4.69 0.34 2.38 0 0 Z " fill="#17191B" transform="translate(96,119)"/>
<path d="M0 0 C1.125 1.6875 1.125 1.6875 2 4 C1.375 6.6875 1.375 6.6875 0 9 C-2.125 9.8125 -2.125 9.8125 -4 10 C-2.8905928 6.51329166 -1.73662334 3.22515763 0 0 Z " fill="#262828" transform="translate(216,186)"/>
<path d="M0 0 C1.52519276 0.08937803 3.04681929 0.24537146 4.5625 0.4375 C5.80193359 0.59025391 5.80193359 0.59025391 7.06640625 0.74609375 C7.70449219 0.82988281 8.34257812 0.91367188 9 1 C8.01 2.485 8.01 2.485 7 4 C4 4.375 4 4.375 1 4 C0.34 3.01 -0.32 2.02 -1 1 C-0.67 0.67 -0.34 0.34 0 0 Z " fill="#101313" transform="translate(259,162)"/>
<path d="M0 0 C2.88437779 1.29299694 4.87219421 2.65941363 7 5 C4.6875 5.6875 4.6875 5.6875 2 6 C0.1875 4.5625 0.1875 4.5625 -1 3 C-0.67 2.01 -0.34 1.02 0 0 Z " fill="#D3D6D7" transform="translate(86,109)"/>
<path d="M0 0 C3.465 1.98 3.465 1.98 7 4 C6.01 5.485 6.01 5.485 5 7 C2.69 5.35 0.38 3.7 -2 2 C-1.34 1.34 -0.68 0.68 0 0 Z " fill="#1E2021" transform="translate(87,106)"/>
<path d="M0 0 C0.33 0.66 0.66 1.32 1 2 C0.22265625 3.7265625 0.22265625 3.7265625 -0.9375 5.625 C-1.618125 6.73875 -2.29875 7.8525 -3 9 C-3.66 7.68 -4.32 6.36 -5 5 C-3.35 3.35 -1.7 1.7 0 0 Z " fill="#E9E8E9" transform="translate(86,239)"/>
<path d="M0 0 C0.66 0 1.32 0 2 0 C2 0.99 2 1.98 2 3 C2.66 3.33 3.32 3.66 4 4 C3.67 4.99 3.34 5.98 3 7 C3 6.34 3 5.68 3 5 C1.824375 5.7115625 1.824375 5.7115625 0.625 6.4375 C-0.88948678 7.33898023 -2.4235897 8.21179485 -4 9 C-3.67 7.68 -3.34 6.36 -3 5 C-2.34 5 -1.68 5 -1 5 C-0.67 3.35 -0.34 1.7 0 0 Z " fill="#CACACA" transform="translate(83,227)"/>
<path d="M0 0 C2.475 0.99 2.475 0.99 5 2 C4.67 2.99 4.34 3.98 4 5 C1.4375 6.1875 1.4375 6.1875 -1 7 C-0.67 4.69 -0.34 2.38 0 0 Z " fill="#EEEFF0" transform="translate(118,203)"/>
<path d="M0 0 C3.96 0.33 7.92 0.66 12 1 C12 1.33 12 1.66 12 2 C9.36 2 6.72 2 4 2 C4 2.66 4 3.32 4 4 C1.69 4 -0.62 4 -3 4 C-3 3.67 -3 3.34 -3 3 C-1.35 3 0.3 3 2 3 C2 2.34 2 1.68 2 1 C1.34 0.67 0.68 0.34 0 0 Z " fill="#C3C5C5" transform="translate(248,164)"/>
<path d="M0 0 C0.66 0 1.32 0 2 0 C2.33 1.98 2.66 3.96 3 6 C0.69 5.67 -1.62 5.34 -4 5 C-4 4.01 -4 3.02 -4 2 C-2.68 1.67 -1.36 1.34 0 1 C0 0.67 0 0.34 0 0 Z " fill="#101012" transform="translate(225,154)"/>
<path d="M0 0 C0.33 0.99 0.66 1.98 1 3 C1.99 3.33 2.98 3.66 4 4 C3.01 4 2.02 4 1 4 C1 4.99 1 5.98 1 7 C-0.98 7.99 -0.98 7.99 -3 9 C-2.5020163 5.26512223 -2.12508244 3.18762365 0 0 Z " fill="#272729" transform="translate(217,140)"/>
<path d="M0 0 C1.98 0.99 3.96 1.98 6 3 C4.75 4.5 4.75 4.5 3 6 C1.68 6 0.36 6 -1 6 C-1.042721 4.33388095 -1.04063832 2.66617115 -1 1 C-0.67 0.67 -0.34 0.34 0 0 Z " fill="#141515" transform="translate(233,118)"/>
<path d="M0 0 C0.99 0 1.98 0 3 0 C3.12375 0.639375 3.2475 1.27875 3.375 1.9375 C3.684375 2.9584375 3.684375 2.9584375 4 4 C4.66 4.33 5.32 4.66 6 5 C5.34 5 4.68 5 4 5 C3.67 5.66 3.34 6.32 3 7 C1.68 5.35 0.36 3.7 -1 2 C-0.67 1.34 -0.34 0.68 0 0 Z " fill="#191B1A" transform="translate(110,96)"/>
<path d="M0 0 C0.99 0.66 1.98 1.32 3 2 C2.67 2.66 2.34 3.32 2 4 C1.34 4.144375 0.68 4.28875 0 4.4375 C-0.66 4.623125 -1.32 4.80875 -2 5 C-2.33 5.99 -2.66 6.98 -3 8 C-3.66 7.34 -4.32 6.68 -5 6 C-3.35 4.02 -1.7 2.04 0 0 Z " fill="#151817" transform="translate(98,227)"/>
<path d="M0 0 C1.65 0 3.3 0 5 0 C4.67 1.65 4.34 3.3 4 5 C3.01 5.33 2.02 5.66 1 6 C0.67 4.02 0.34 2.04 0 0 Z " fill="#F4F8F7" transform="translate(93,224)"/>
<path d="M0 0 C0.66 0.99 1.32 1.98 2 3 C-0.25 4.5625 -0.25 4.5625 -3 6 C-4.32 5.67 -5.64 5.34 -7 5 C-4.69 3.35 -2.38 1.7 0 0 Z " fill="#202222" transform="translate(119,209)"/>
<path d="M0 0 C2.6875 0.875 2.6875 0.875 5 2 C4.67 3.32 4.34 4.64 4 6 C1.97954558 5.39816251 -0.02111039 4.72693904 -2 4 C-2.33 3.34 -2.66 2.68 -3 2 C-2.01 1.34 -1.02 0.68 0 0 Z " fill="#E2E4E3" transform="translate(157,180)"/>
<path d="M0 0 C1.10844919 3.32534757 0.84454356 5.62182575 0 9 C-1.32 9.33 -2.64 9.66 -4 10 C-3.52449439 8.51965236 -3.04448784 7.04074979 -2.5625 5.5625 C-2.29566406 4.73878906 -2.02882812 3.91507813 -1.75390625 3.06640625 C-1 1 -1 1 0 0 Z " fill="#232222" transform="translate(146,149)"/>
<path d="M0 0 C3.60296594 -0.41176754 4.78402067 -0.1535853 7.8125 2 C8.534375 2.66 9.25625 3.32 10 4 C8.375 4.75 8.375 4.75 6 5 C2.75 3.125 2.75 3.125 0 1 C0 0.67 0 0.34 0 0 Z " fill="#D1D3D5" transform="translate(100,121)"/>
<path d="M0 0 C2.33944736 0.28730055 4.6739143 0.61936779 7 1 C4.14693203 3.32472205 1.45925163 4.7508258 -2 6 C-1.125 1.125 -1.125 1.125 0 0 Z " fill="#1B1E1D" transform="translate(269,100)"/>
<path d="M0 0 C2.31 1.65 4.62 3.3 7 5 C5.02 5.99 5.02 5.99 3 7 C1.5 5.75 1.5 5.75 0 4 C0 2.68 0 1.36 0 0 Z " fill="#1A1E1F" transform="translate(225,221)"/>
<path d="M0 0 C0.66 0.33 1.32 0.66 2 1 C2 1.99 2 2.98 2 4 C0.35 4.66 -1.3 5.32 -3 6 C-3 3 -3 3 -1.5 1.3125 C-0.7575 0.6628125 -0.7575 0.6628125 0 0 Z " fill="#F9FCFD" transform="translate(249,92)"/>
<path d="M0 0 C0.33 0 0.66 0 1 0 C1.1875 3.375 1.1875 3.375 1 7 C0.01 7.66 -0.98 8.32 -2 9 C-2.25 3.375 -2.25 3.375 0 0 Z " fill="#E4E7E8" transform="translate(142,243)"/>
<path d="M0 0 C-0.33 1.65 -0.66 3.3 -1 5 C-1.66 4.34 -2.32 3.68 -3 3 C-4.65 4.32 -6.3 5.64 -8 7 C-6.13932792 2.84926997 -4.83061881 0 0 0 Z " fill="#1A1A1A" transform="translate(86,232)"/>
<path d="M0 0 C1.32 0.33 2.64 0.66 4 1 C3.01 1 2.02 1 1 1 C1 2.65 1 4.3 1 6 C-0.32 6 -1.64 6 -3 6 C-2.67 4.68 -2.34 3.36 -2 2 C-1.34 2 -0.68 2 0 2 C0 1.34 0 0.68 0 0 Z " fill="#E9E9E9" transform="translate(164,211)"/>
<path d="M0 0 C0.33 0 0.66 0 1 0 C2.125 7.75 2.125 7.75 1 10 C0.34 10 -0.32 10 -1 10 C-1.125 2.25 -1.125 2.25 0 0 Z " fill="#060706" transform="translate(146,169)"/>
<path d="M0 0 C0.66 0.33 1.32 0.66 2 1 C1.67 2.65 1.34 4.3 1 6 C-0.65 6 -2.3 6 -4 6 C-2.68 4.02 -1.36 2.04 0 0 Z " fill="#F0F2F1" transform="translate(174,145)"/>
<path d="M0 0 C1.65 0 3.3 0 5 0 C5 1.32 5 2.64 5 4 C4.34 4.66 3.68 5.32 3 6 C2.01 4.02 1.02 2.04 0 0 Z " fill="#121617" transform="translate(218,244)"/>
<path d="M0 0 C0.66 0.33 1.32 0.66 2 1 C1.67 2.98 1.34 4.96 1 7 C-0.32 6.34 -1.64 5.68 -3 5 C-1.125 1.125 -1.125 1.125 0 0 Z " fill="#222323" transform="translate(150,144)"/>
<path d="M0 0 C3.465 1.98 3.465 1.98 7 4 C6.01 4.66 5.02 5.32 4 6 C2.68 5.34 1.36 4.68 0 4 C0 2.68 0 1.36 0 0 Z " fill="#181C1D" transform="translate(109,128)"/>
<path d="M0 0 C1.32 0 2.64 0 4 0 C4 1.98 4 3.96 4 6 C3.34 5.01 2.68 4.02 2 3 C1.01 3.99 0.02 4.98 -1 6 C-0.67 4.02 -0.34 2.04 0 0 Z " fill="#CACACC" transform="translate(137,256)"/>
<path d="M0 0 C0.66 0.33 1.32 0.66 2 1 C1.67 1.66 1.34 2.32 1 3 C0.01 2.67 -0.98 2.34 -2 2 C-1.34 1.34 -0.68 0.68 0 0 Z M-2 3 C-2 3.99 -2 4.98 -2 6 C-3.65 6 -5.3 6 -7 6 C-4.25 3 -4.25 3 -2 3 Z " fill="#DADCDC" transform="translate(99,218)"/>
<path d="M0 0 C-5.75 4 -5.75 4 -8 4 C-8.33 3.01 -8.66 2.02 -9 1 C-2.25 -1.125 -2.25 -1.125 0 0 Z " fill="#171918" transform="translate(188,215)"/>
<path d="M0 0 C1.32 0.99 2.64 1.98 4 3 C3.34 3 2.68 3 2 3 C1.67 4.32 1.34 5.64 1 7 C0.01 5.35 -0.98 3.7 -2 2 C-1.34 1.34 -0.68 0.68 0 0 Z " fill="#15171A" transform="translate(216,199)"/>
<path d="M0 0 C2.475 0.99 2.475 0.99 5 2 C4.34 3.32 3.68 4.64 3 6 C0 2.25 0 2.25 0 0 Z " fill="#E9ECED" transform="translate(223,257)"/>
<path d="M0 0 C1.65 1.65 3.3 3.3 5 5 C3 6 3 6 -1 6 C-0.67 4.02 -0.34 2.04 0 0 Z " fill="#161A1B" transform="translate(207,234)"/>
<path d="M0 0 C0.66 0 1.32 0 2 0 C1.67 2.64 1.34 5.28 1 8 C-1 6 -1 6 -1.1875 3.4375 C-1 1 -1 1 0 0 Z " fill="#131515" transform="translate(146,215)"/>
<path d="M0 0 C1.4370809 -0.05422947 2.87475462 -0.09289723 4.3125 -0.125 C5.11300781 -0.14820313 5.91351563 -0.17140625 6.73828125 -0.1953125 C9 0 9 0 12 2 C10.35 2.66 8.7 3.32 7 4 C7 3.01 7 2.02 7 1 C4.69 1 2.38 1 0 1 C0 0.67 0 0.34 0 0 Z " fill="#39393B" transform="translate(196,209)"/>
<path d="M0 0 C-1.32 0.33 -2.64 0.66 -4 1 C-4 1.66 -4 2.32 -4 3 C-5.65 3 -7.3 3 -9 3 C-5.83583464 -0.30799106 -4.50236011 -1.35070803 0 0 Z " fill="#323435" transform="translate(164,139)"/>
<path d="M0 0 C0 2 0 4 0 6 C-0.66 6 -1.32 6 -2 6 C-2.33 6.66 -2.66 7.32 -3 8 C-3.66 7.34 -4.32 6.68 -5 6 C-3.35 4.02 -1.7 2.04 0 0 Z " fill="#272827" transform="translate(239,111)"/>
<path d="M0 0 C-1.24976756 3.65316671 -1.67098753 4.78065836 -5 7 C-5.33 6.01 -5.66 5.02 -6 4 C-2.25 0 -2.25 0 0 0 Z " fill="#E6E8E9" transform="translate(245,103)"/>
<path d="M0 0 C1.5625 1.1875 1.5625 1.1875 3 3 C2.6875 5.6875 2.6875 5.6875 2 8 C0.68 6.68 -0.64 5.36 -2 4 C-1.34 2.68 -0.68 1.36 0 0 Z " fill="#DFE1E1" transform="translate(111,101)"/>
</svg>
