<?xml version="1.0" encoding="UTF-8"?>
<svg version="1.1" xmlns="http://www.w3.org/2000/svg" width="1024" height="1024">
<path d="M0 0 C1.05574219 0.28875 2.11148437 0.5775 3.19921875 0.875 C21.48321578 6.34311126 36.2376641 17.03443092 50 30 C50.59039063 30.53753906 51.18078125 31.07507813 51.7890625 31.62890625 C56.19464403 35.79437314 59.8309558 40.52598701 63.52441406 45.31420898 C67.10058464 49.92625676 70.8414828 54.36123856 74.6875 58.75 C79.61990227 64.38169773 84.36277641 70.12169374 89 76 C94.34912238 82.69130144 99.87290327 89.1510942 105.671875 95.45703125 C107.60694262 97.57067054 109.50208297 99.70659848 111.375 101.875 C115.94226459 107.12681947 120.700451 112.20498172 125.43261719 117.30761719 C127.3843044 119.41495298 129.3292704 121.5284172 131.2739563 123.64221191 C133.28795323 125.82866595 135.30726377 128.01016803 137.32687378 130.19143677 C138.40041089 131.35187507 139.47287444 132.51330799 140.54397583 133.67599487 C151.24013559 145.27571199 162.32261535 156.47925724 173.4909668 167.62133789 C175.96728543 170.09189645 178.43899692 172.5670086 180.90946865 175.04341221 C183.31090454 177.44935353 185.71616701 179.85145426 188.12109375 182.25390625 C188.99519394 183.13003067 189.86929413 184.00615509 190.7698822 184.90882874 C195.16152756 189.28383353 199.61053954 193.52104899 204.32455444 197.548172 C206.72656198 199.62958956 208.95730172 201.86205819 211.1875 204.125 C211.98542969 204.93195313 212.78335938 205.73890625 213.60546875 206.5703125 C214.39566406 207.37210938 215.18585937 208.17390625 216 209 C216.84949219 209.84820312 217.69898438 210.69640625 218.57421875 211.5703125 C243.67549512 236.7120096 256.02949117 270.85561611 256.375 306.125 C256.08343438 335.80836765 246.54577498 364.77001936 228 388 C227.57638184 388.55091309 227.15276367 389.10182617 226.71630859 389.66943359 C219.8526118 398.58268859 212.17148762 405.51364368 203 412 C202.42878418 412.40734375 201.85756836 412.8146875 201.26904297 413.234375 C175.88417573 431.0900167 145.30467612 437.54370599 114.69921875 432.74609375 C98.37410001 429.45348796 83.65565289 423.22372355 69.5 414.5 C26.51112234 388.06661804 -27.49380726 380.41785685 -76.40087891 391.76928711 C-99.70635669 397.49758995 -120.7601384 406.4543841 -141.27734375 418.77734375 C-165.71727502 433.4388579 -196.07457959 438.07682735 -224 432 C-256.08100795 423.8487978 -283.53797968 403.39333988 -300.75927734 375.14501953 C-318.33491199 344.75943787 -325.12737822 307.35213257 -316 273 C-307.64543593 242.83268286 -292.20654184 222.00405101 -270.31542969 200.18505859 C-268.36797202 198.24299148 -266.4259584 196.29559428 -264.484375 194.34765625 C-263.22688321 193.09082487 -261.96908146 191.83430353 -260.7109375 190.578125 C-259.85597183 189.72012299 -259.85597183 189.72012299 -258.98373413 188.8447876 C-255.59029514 185.47076095 -252.09172147 182.31426052 -248.39297485 179.27655029 C-246.86607521 178.02986924 -246.86607521 178.02986924 -246 176 C-245.34 176 -244.68 176 -244 176 C-244 175.34 -244 174.68 -244 174 C-242.63671875 172.66015625 -242.63671875 172.66015625 -240.6875 171.0625 C-233.93359192 165.31449312 -227.61425029 159.07754527 -221.84765625 152.33984375 C-216.73133972 146.4417613 -211.09912465 141.04142919 -205.54296875 135.56347656 C-200.35805817 130.44494961 -195.25455737 125.30956885 -190.515625 119.76953125 C-188.24343807 117.11669445 -185.87032262 114.56552566 -183.5 112 C-179.26130735 107.39306868 -175.08298144 102.74553421 -171 98 C-170.57638184 97.50806152 -170.15276367 97.01612305 -169.71630859 96.50927734 C-159.3395151 84.45226205 -149.03433686 72.34440003 -139 60 C-132.8767291 52.46705522 -126.71739611 44.96901045 -120.38085938 37.61425781 C-119.0562445 36.06575117 -117.7541328 34.49808033 -116.453125 32.9296875 C-101.78332751 15.90383162 -81.44266985 5.02861005 -60 -1 C-58.35451172 -1.47953125 -58.35451172 -1.47953125 -56.67578125 -1.96875 C-38.26578022 -6.50302619 -18.07388796 -5.36074123 0 0 Z M-52 69 C-53.20076172 69.53173828 -53.20076172 69.53173828 -54.42578125 70.07421875 C-66.14818527 76.00085683 -74.0334452 88.62888956 -81.90161133 98.79223633 C-85.67022184 103.64482706 -89.63163154 108.30909684 -93.65380859 112.95239258 C-96.72778703 116.50364398 -99.7335293 120.09735101 -102.6875 123.75 C-106.24329092 128.13227205 -109.96732531 132.31959762 -113.76953125 136.48828125 C-115.99519351 138.99458744 -118.09521561 141.56924393 -120.1875 144.1875 C-125.50292214 150.74441348 -131.2751892 156.84001382 -137.07470703 162.96582031 C-139.72357247 165.76449477 -142.36344518 168.57158694 -145.00366211 171.37841797 C-146.26541097 172.7193251 -147.52785316 174.05958047 -148.79125977 175.39892578 C-149.39639404 176.04071777 -150.00152832 176.68250977 -150.625 177.34375 C-151.29966309 178.05853516 -151.97432617 178.77332031 -152.66943359 179.50976562 C-154.36576724 181.32231572 -156.04958655 183.14305036 -157.72509766 184.97460938 C-168.47723411 196.6797426 -179.73118776 207.88451841 -190.97900391 219.109375 C-193.82639446 221.95102071 -196.66920311 224.79720162 -199.51074791 227.64469147 C-201.73100319 229.86857918 -203.95365767 232.0900568 -206.17702103 234.31083679 C-207.22618267 235.35933909 -208.27462362 236.40856312 -209.32227707 237.45857239 C-215.04055669 243.18691092 -220.83421096 248.75190871 -227 254 C-239.79168999 265.49020991 -248.86563289 279.84329074 -250.17700195 297.36499023 C-250.69523288 318.03022262 -247.63804802 335.36564505 -233 351 C-221.57557331 361.5344475 -211.30104238 365.20020767 -195.87890625 365.265625 C-187.64814948 364.70198808 -181.30075477 362.49187124 -174.125 358.5 C-173.30475342 358.05785156 -172.48450684 357.61570312 -171.6394043 357.16015625 C-168.30420285 355.36185384 -164.98226925 353.53984812 -161.66162109 351.71484375 C-128.38450723 333.48707071 -92.86475542 322.25269925 -55 319 C-53.72640625 318.87882813 -52.4528125 318.75765625 -51.140625 318.6328125 C-20.06932684 316.06411427 10.96777423 319.98305548 41 328 C42.24652344 328.309375 43.49304688 328.61875 44.77734375 328.9375 C65.2527539 334.27503063 85.60257649 343.38070844 103.81201172 354.06298828 C117.57922529 362.13367153 130.08429447 367.47290325 146.38671875 364.3515625 C160.22407827 360.51967832 171.28251691 351.41012162 178.8125 339.25 C187.74510919 323.02208122 189.58104477 303.78621935 184.63378906 285.95605469 C180.23904874 272.39262653 171.96428274 260.80966307 161.03125 251.7421875 C157.99754588 249.14020281 155.25010505 246.2731852 152.46875 243.40625 C150.48333228 241.47109602 148.47330988 239.66945605 146.37133789 237.86694336 C141.93012487 233.99236201 137.75030249 229.89474389 133.58984375 225.72265625 C132.81870743 224.95247665 132.04757111 224.18229706 131.25306702 223.38877869 C129.63419847 221.77058627 128.01657449 220.15114788 126.40014648 218.53051758 C123.94431282 216.06932768 121.48318635 213.61352191 119.02148438 211.15820312 C117.43978347 209.57584133 115.85839283 207.99316933 114.27734375 206.41015625 C113.55111313 205.68594986 112.82488251 204.96174347 112.0766449 204.21559143 C108.06262167 200.18334685 104.21918013 196.06002268 100.51795959 191.73814392 C98.29592425 189.19379608 95.91712587 186.86025232 93.5 184.5 C89.69130666 180.74850206 86.08033124 176.89410231 82.609375 172.828125 C80.97413566 170.97062012 79.26518207 169.23393991 77.5 167.5 C74.46745435 164.51462728 71.66166613 161.38919593 68.8828125 158.16796875 C66.7842468 155.75157049 64.645603 153.37470976 62.5 151 C55.59539367 143.34110894 48.87025173 135.53492283 42.16796875 127.69921875 C40.13428605 125.32213047 38.0954978 122.94963379 36.05078125 120.58203125 C26.62556887 109.65685194 17.29174931 98.6361904 8.51367188 87.18139648 C0.16450703 76.32073005 -8.48933118 68.66418378 -22 65 C-32.36094855 63.89945324 -42.6176952 64.17875039 -52 69 Z " fill="#080807" transform="translate(544,297)"/>
<path d="M0 0 C4.95313706 4.19357094 9.76479429 8.50007526 14.5 12.9375 C15.12519531 13.51951172 15.75039063 14.10152344 16.39453125 14.70117188 C20.68684654 18.71355356 24.86651809 22.82463143 29 27 C29.845625 27.845625 30.69125 28.69125 31.5625 29.5625 C34.375 32.375 37.1875 35.1875 40 38 C39 40 39 40 37 42 C32.2 38.55384615 32.2 38.55384615 31.1875 35.75 C31.125625 35.1725 31.06375 34.595 31 34 C30.01 34 29.02 34 28 34 C28 34.66 28 35.32 28 36 C27.34 36 26.68 36 26 36 C25.06576355 32.98968256 24.95550089 32.13349732 26 29 C23.50935112 28.31292445 21.62113708 28 19 28 C19 27.34 19 26.68 19 26 C18.34 26 17.68 26 17 26 C16.7525 24.9275 16.505 23.855 16.25 22.75 C14.98780451 18.96341353 14.08160501 17.42793122 11 15 C10.01 14.67 9.02 14.34 8 14 C5 9.66666667 5 9.66666667 5 7 C4.360625 6.773125 3.72125 6.54625 3.0625 6.3125 C1 5 1 5 0.25 2.375 C0.1675 1.59125 0.085 0.8075 0 0 Z " fill="#181819" transform="translate(731,479)"/>
<path d="M0 0 C0.66 0.33 1.32 0.66 2 1 C1.13375 2.03060547 1.13375 2.03060547 0.25 3.08203125 C-0.4925 3.98308594 -1.235 4.88414062 -2 5.8125 C-2.7425 6.70582031 -3.485 7.59914063 -4.25 8.51953125 C-6.28824055 10.90261209 -6.28824055 10.90261209 -6 14 C-6.99 14.33 -7.98 14.66 -9 15 C-9.66 15.66 -10.32 16.32 -11 17 C-12.77424219 18.46458672 -14.55540947 19.91984411 -16.34375 21.3671875 C-18.13200671 23.13013869 -18.89818717 24.76527479 -20 27 C-21.97956942 28.69088222 -23.97945196 30.35830472 -26 32 C-26.66 32.99 -27.32 33.98 -28 35 C-29.485 35.495 -29.485 35.495 -31 36 C-31.33 36.99 -31.66 37.98 -32 39 C-33.84765625 40.60546875 -33.84765625 40.60546875 -36.0625 42.1875 C-36.79597656 42.71730469 -37.52945313 43.24710938 -38.28515625 43.79296875 C-38.85105469 44.19128906 -39.41695312 44.58960938 -40 45 C-40.66 44.67 -41.32 44.34 -42 44 C-34.19980531 33.73189995 -25.08718195 24.85853054 -15.9375 15.8125 C-14.38820413 14.27325712 -12.83937229 12.73354702 -11.29101562 11.19335938 C-7.5326734 7.45683947 -3.76865643 3.72611526 0 0 Z " fill="#0A0A0A" transform="translate(290,481)"/>
<path d="M0 0 C1.32 0.66 2.64 1.32 4 2 C3.2575 2.721875 2.515 3.44375 1.75 4.1875 C-1.00408972 6.89539371 -1.00408972 6.89539371 -3.125 9.75 C-5 12 -5 12 -8 13 C-8.33 13.99 -8.66 14.98 -9 16 C-10.84765625 17.60546875 -10.84765625 17.60546875 -13.0625 19.1875 C-13.79597656 19.71730469 -14.52945313 20.24710938 -15.28515625 20.79296875 C-15.85105469 21.19128906 -16.41695312 21.58960938 -17 22 C-17.66 21.67 -18.32 21.34 -19 21 C-13.07295273 13.46950033 -6.90481356 6.64534248 0 0 Z " fill="#101010" transform="translate(267,504)"/>
<path d="M0 0 C0 4.10746566 -1.63960436 5.19754861 -4.375 8.1875 C-5.18710937 9.08855469 -5.99921875 9.98960937 -6.8359375 10.91796875 C-9 13 -9 13 -11 13 C-11.226875 13.556875 -11.45375 14.11375 -11.6875 14.6875 C-13.01726157 17.03041324 -14.56910665 18.63562514 -16.48217773 20.50854492 C-18.1708852 22.16791663 -19.82586344 23.85741902 -21.48046875 25.55078125 C-22.71606836 26.80476385 -23.95174673 28.05866883 -25.1875 29.3125 C-26.13012695 30.28026367 -26.13012695 30.28026367 -27.09179688 31.26757812 C-27.69443359 31.87666016 -28.29707031 32.48574219 -28.91796875 33.11328125 C-29.46219482 33.66798096 -30.0064209 34.22268066 -30.56713867 34.79418945 C-32 36 -32 36 -34 36 C-34 35.34 -34 34.68 -34 34 C-33.34 34 -32.68 34 -32 34 C-32 33.34 -32 32.68 -32 32 C-30.63671875 30.66015625 -30.63671875 30.66015625 -28.6875 29.0625 C-21.06036871 22.57132443 -14.06945396 15.40669727 -7.5703125 7.79296875 C-5.17568426 5.05880367 -2.6008335 2.53739854 0 0 Z " fill="#1A1B1B" transform="translate(332,439)"/>
<path d="M0 0 C3.60260468 1.80130234 6.3514571 3.97309382 9 7 C9.33 7.99 9.66 8.98 10 10 C10.99 10.66 11.98 11.32 13 12 C12.67 12.66 12.34 13.32 12 14 C10.2244709 12.58922306 8.45474969 11.17113464 6.6875 9.75 C5.70136719 8.96109375 4.71523438 8.1721875 3.69921875 7.359375 C1.3981453 5.34801702 -0.30605396 3.5206842 -2 1 C-1.34 0.67 -0.68 0.34 0 0 Z M11 9 C11.66 9 12.32 9 13 9 C12.67 9.66 12.34 10.32 12 11 C11.67 10.34 11.34 9.68 11 9 Z " fill="#272727" transform="translate(265,695)"/>
<path d="M0 0 C0.66 0 1.32 0 2 0 C2 0.66 2 1.32 2 2 C2.99 1.67 3.98 1.34 5 1 C5 1.66 5 2.32 5 3 C5.66 3.33 6.32 3.66 7 4 C7 6.97 7 9.94 7 13 C1.30837004 8.8061674 1.30837004 8.8061674 0 5 C0 3.33333333 0 1.66666667 0 0 Z " fill="#0C0D0C" transform="translate(599,434)"/>
<path d="M0 0 C1 3 1 3 -0.1875 5.4375 C-1.93979049 7.91487622 -3.78315483 9.9360407 -6 12 C-5.34 12.33 -4.68 12.66 -4 13 C-4.33 13.99 -4.66 14.98 -5 16 C-5.598125 15.773125 -6.19625 15.54625 -6.8125 15.3125 C-7.534375 15.209375 -8.25625 15.10625 -9 15 C-10.77190909 16.35444301 -10.77190909 16.35444301 -12 18 C-12.66 17.67 -13.32 17.34 -14 17 C-13.61142822 16.5560791 -13.22285645 16.1121582 -12.82250977 15.65478516 C-11.06699155 13.6467519 -9.31471356 11.63591735 -7.5625 9.625 C-6.95083984 8.92632812 -6.33917969 8.22765625 -5.70898438 7.5078125 C-5.12568359 6.8375 -4.54238281 6.1671875 -3.94140625 5.4765625 C-3.13231812 4.549646 -3.13231812 4.549646 -2.30688477 3.60400391 C-0.91881263 2.01950866 -0.91881263 2.01950866 0 0 Z " fill="#222323" transform="translate(421,337)"/>
<path d="M0 0 C0.66 0 1.32 0 2 0 C2 0.66 2 1.32 2 2 C2.66 2.33 3.32 2.66 4 3 C1.69 5.64 -0.62 8.28 -3 11 C-3.99 9.68 -4.98 8.36 -6 7 C-4.625 5.5 -4.625 5.5 -3 4 C-2.34 4 -1.68 4 -1 4 C-0.67 2.68 -0.34 1.36 0 0 Z M-7 9 C-6.01 9.495 -6.01 9.495 -5 10 C-5.99 10.495 -5.99 10.495 -7 11 C-7 10.34 -7 9.68 -7 9 Z " fill="#0E0D0D" transform="translate(478,370)"/>
<path d="M0 0 C1.08861328 0.17015625 1.08861328 0.17015625 2.19921875 0.34375 C2.19921875 1.00375 2.19921875 1.66375 2.19921875 2.34375 C1.20921875 2.67375 0.21921875 3.00375 -0.80078125 3.34375 C-1.13078125 4.33375 -1.46078125 5.32375 -1.80078125 6.34375 C-3.6484375 7.94921875 -3.6484375 7.94921875 -5.86328125 9.53125 C-6.59675781 10.06105469 -7.33023438 10.59085938 -8.0859375 11.13671875 C-8.65183594 11.53503906 -9.21773437 11.93335938 -9.80078125 12.34375 C-10.46078125 12.01375 -11.12078125 11.68375 -11.80078125 11.34375 C-10.42401087 9.49605816 -9.02363518 7.66593649 -7.61328125 5.84375 C-6.83597656 4.8228125 -6.05867187 3.801875 -5.2578125 2.75 C-2.80078125 0.34375 -2.80078125 0.34375 0 0 Z " fill="#191919" transform="translate(259.80078125,513.65625)"/>
<path d="M0 0 C7.48291572 6.15034169 7.48291572 6.15034169 10 10 C9.34 10 8.68 10 8 10 C7.01 11.485 7.01 11.485 6 13 C6 12.34 6 11.68 6 11 C5.34 11 4.68 11 4 11 C3.34 8.69 2.68 6.38 2 4 C0.68 3.67 -0.64 3.34 -2 3 C-1.34 3 -0.68 3 0 3 C0 2.01 0 1.02 0 0 Z " fill="#2A2A2A" transform="translate(705,453)"/>
<path d="M0 0 C0.66 0.33 1.32 0.66 2 1 C1.505 1.433125 1.01 1.86625 0.5 2.3125 C-1.33218192 3.99740483 -1.33218192 3.99740483 -1 7 C-2.98 7.99 -4.96 8.98 -7 10 C-7.33 8.68 -7.66 7.36 -8 6 C-5.36 4.02 -2.72 2.04 0 0 Z " fill="#1B1C1C" transform="translate(451,310)"/>
<path d="M0 0 C0.33 0.66 0.66 1.32 1 2 C1.66 2 2.32 2 3 2 C3.33 3.98 3.66 5.96 4 8 C0.00499382 6.6302836 -2.80009492 4.74277578 -6 2 C-4.02 2 -2.04 2 0 2 C0 1.34 0 0.68 0 0 Z " fill="#242323" transform="translate(614,705)"/>
<path d="M0 0 C1.32 0.33 2.64 0.66 4 1 C2.37829621 2.00533667 0.75252763 3.00411907 -0.875 4 C-2.23238281 4.8353125 -2.23238281 4.8353125 -3.6171875 5.6875 C-6 7 -6 7 -8 7 C-7.67 5.35 -7.34 3.7 -7 2 C-3.98968256 1.06576355 -3.13349732 0.95550089 0 2 C0 1.34 0 0.68 0 0 Z " fill="#373637" transform="translate(412,707)"/>
<path d="M0 0 C0.66 0.33 1.32 0.66 2 1 C1.09373216 2.2989839 0.17450463 3.58893167 -0.75 4.875 C-1.26046875 5.59429687 -1.7709375 6.31359375 -2.296875 7.0546875 C-4.093348 9.10662225 -5.53552186 9.90916541 -8 11 C-9.70921589 12.5412312 -9.70921589 12.5412312 -11 14 C-11.66 13.67 -12.32 13.34 -13 13 C-8.71 8.71 -4.42 4.42 0 0 Z " fill="#383939" transform="translate(290,481)"/>
<path d="M0 0 C0.33 0.99 0.66 1.98 1 3 C-0.65 4.65 -2.3 6.3 -4 8 C-7 4.25 -7 4.25 -7 2 C-2.25 0 -2.25 0 0 0 Z " fill="#151514" transform="translate(410,635)"/>
<path d="M0 0 C0.66 0 1.32 0 2 0 C1.84518205 2.70931419 1.51827919 4.46584039 -0.40234375 6.4453125 C-1.89771708 7.67679642 -3.4462924 8.8429837 -5 10 C-4.49890042 5.61537866 -3.01704885 3.1999003 0 0 Z " fill="#2D2E2E" transform="translate(413,449)"/>
<path d="M0 0 C0 3.57430369 -0.57148438 3.93787409 -2.9375 6.4375 C-5.28062213 8.91356523 -6.41263067 10.61705004 -7 14 C-7.66 13.34 -8.32 12.68 -9 12 C-9.99 12 -10.98 12 -12 12 C-8.04 8.04 -4.08 4.08 0 0 Z " fill="#1B1B1B" transform="translate(345,426)"/>
<path d="M0 0 C0.103125 0.639375 0.20625 1.27875 0.3125 1.9375 C0.539375 2.618125 0.76625 3.29875 1 4 C1.99 4.33 2.98 4.66 4 5 C3.34 6.32 2.68 7.64 2 9 C-0.64752004 6.42215154 -2.94432065 4.08351902 -5 1 C-2 0 -2 0 0 0 Z " fill="#202020" transform="translate(254,679)"/>
<path d="M0 0 C0 4.10746566 -1.63960436 5.19754861 -4.375 8.1875 C-5.18710937 9.08855469 -5.99921875 9.98960937 -6.8359375 10.91796875 C-9 13 -9 13 -11 13 C-9.46356148 9.31930113 -7.21849055 7.01224796 -4.375 4.25 C-3.55773437 3.45078125 -2.74046875 2.6515625 -1.8984375 1.828125 C-0.95871094 0.92320312 -0.95871094 0.92320312 0 0 Z " fill="#353636" transform="translate(332,439)"/>
<path d="M0 0 C0.66 0.99 1.32 1.98 2 3 C0.35 5.31 -1.3 7.62 -3 10 C-3.66 8.68 -4.32 7.36 -5 6 C-3.35 4.02 -1.7 2.04 0 0 Z " fill="#222223" transform="translate(775,675)"/>
<path d="M0 0 C7.48291572 6.15034169 7.48291572 6.15034169 10 10 C8.35 9.67 6.7 9.34 5 9 C5 8.34 5 7.68 5 7 C4.360625 6.773125 3.72125 6.54625 3.0625 6.3125 C1 5 1 5 0.25 2.375 C0.1675 1.59125 0.085 0.8075 0 0 Z " fill="#252425" transform="translate(731,479)"/>
<path d="M0 0 C0.66 0.33 1.32 0.66 2 1 C0.7260411 3.03833424 -0.61061923 5.03852126 -2 7 C-2.66 7 -3.32 7 -4 7 C-4.33 7.99 -4.66 8.98 -5 10 C-5.66 9.67 -6.32 9.34 -7 9 C-7 6 -7 6 -5.46875 4.39453125 C-4.49421875 3.61142578 -4.49421875 3.61142578 -3.5 2.8125 C-2.8503125 2.28269531 -2.200625 1.75289063 -1.53125 1.20703125 C-1.0259375 0.80871094 -0.520625 0.41039062 0 0 Z " fill="#2E2F30" transform="translate(441,317)"/>
<path d="M0 0 C1.32 0.33 2.64 0.66 4 1 C2.02 3.31 0.04 5.62 -2 8 C-2.99 7.67 -3.98 7.34 -5 7 C-4.67 6.01 -4.34 5.02 -4 4 C-3.34 4 -2.68 4 -2 4 C-1.34 2.68 -0.68 1.36 0 0 Z " fill="#282729" transform="translate(763,690)"/>
<path d="M0 0 C0.66 0.33 1.32 0.66 2 1 C1.67 2.98 1.34 4.96 1 7 C-1.33333333 7 -3.66666667 7 -6 7 C-4.02 4.69 -2.04 2.38 0 0 Z " fill="#1A1B1B" transform="translate(405,357)"/>
<path d="M0 0 C1.65 1.32 3.3 2.64 5 4 C0.05 5.485 0.05 5.485 -5 7 C-3.625 4.5 -3.625 4.5 -2 2 C-1.34 2 -0.68 2 0 2 C0 1.34 0 0.68 0 0 Z " fill="#2F2E2E" transform="translate(384,719)"/>
<path d="M0 0 C0.33 1.32 0.66 2.64 1 4 C-0.26257233 5.17560179 -1.53537084 6.34022865 -2.8125 7.5 C-3.52019531 8.1496875 -4.22789062 8.799375 -4.95703125 9.46875 C-7 11 -7 11 -10 11 C-9.52949219 10.54109375 -9.05898438 10.0821875 -8.57421875 9.609375 C-3.96631602 5.08450705 -3.96631602 5.08450705 0 0 Z " fill="#1F2020" transform="translate(432,325)"/>
<path d="M0 0 C0.99 0.33 1.98 0.66 3 1 C3 3.31 3 5.62 3 8 C1.2925002 6.71937515 -0.37373596 5.38232443 -2 4 C-2 3.34 -2 2.68 -2 2 C-1.34 2 -0.68 2 0 2 C0 1.34 0 0.68 0 0 Z " fill="#252625" transform="translate(603,439)"/>
<path d="M0 0 C0.66 0 1.32 0 2 0 C2 0.66 2 1.32 2 2 C2.66 2.33 3.32 2.66 4 3 C2.35 4.65 0.7 6.3 -1 8 C-1 7.01 -1 6.02 -1 5 C-1.66 4.67 -2.32 4.34 -3 4 C-2.34 4 -1.68 4 -1 4 C-0.67 2.68 -0.34 1.36 0 0 Z " fill="#1E1D1D" transform="translate(478,370)"/>
<path d="M0 0 C0 0.99 0 1.98 0 3 C0.66 3.33 1.32 3.66 2 4 C-2.05606165 3.53199289 -5.46588679 3.12046792 -9 1 C-2.25 0 -2.25 0 0 0 Z " fill="#454444" transform="translate(322,725)"/>
<path d="M0 0 C2.97 0.99 5.94 1.98 9 3 C5 5 5 5 2 6 C1.34 4.02 0.68 2.04 0 0 Z " fill="#272726" transform="translate(324,657)"/>
<path d="M0 0 C2.97 0.99 5.94 1.98 9 3 C5.41220825 3.89694794 2.65381163 4.08304117 -1 4 C-0.67 2.68 -0.34 1.36 0 0 Z " fill="#2E2D2D" transform="translate(615,635)"/>
<path d="M0 0 C-1.98 2.97 -1.98 2.97 -4 6 C-6 2.25 -6 2.25 -6 0 C-3.50907189 -1.24546405 -2.58919267 -0.7767578 0 0 Z " fill="#2B292A" transform="translate(309,560)"/>
<path d="M0 0 C0.66 0.99 1.32 1.98 2 3 C0.35 4.65 -1.3 6.3 -3 8 C-3.75 6.25 -3.75 6.25 -4 4 C-2.0625 1.75 -2.0625 1.75 0 0 Z " fill="#1E1D1D" transform="translate(452,404)"/>
<path d="M0 0 C1.98 0.495 1.98 0.495 4 1 C2.515 4.465 2.515 4.465 1 8 C-0.42944945 5.64561267 -1.08661261 4.51967567 -0.625 1.75 C-0.41875 1.1725 -0.2125 0.595 0 0 Z " fill="#282728" transform="translate(786,653)"/>
<path d="M0 0 C0.33 1.32 0.66 2.64 1 4 C-1.4375 6.75 -1.4375 6.75 -4 9 C-4.66 8.67 -5.32 8.34 -6 8 C-4.02 5.36 -2.04 2.72 0 0 Z " fill="#1B1B1C" transform="translate(722,636)"/>
<path d="M0 0 C0 4.61538462 0 4.61538462 -1 7 C-3.5625 8.25 -3.5625 8.25 -6 9 C-4.47291037 5.56404834 -2.40072955 2.88087546 0 0 Z " fill="#0E0F10" transform="translate(295,477)"/>
<path d="M0 0 C0.99 0.33 1.98 0.66 3 1 C1.02 3.31 -0.96 5.62 -3 8 C-3.33 6.68 -3.66 5.36 -4 4 C-2.68 3.34 -1.36 2.68 0 2 C0 1.34 0 0.68 0 0 Z " fill="#3B3B3C" transform="translate(430,431)"/>
<path d="M0 0 C-2.64 1.65 -5.28 3.3 -8 5 C-8 4.01 -8 3.02 -8 2 C-7.34 2 -6.68 2 -6 2 C-6 1.34 -6 0.68 -6 0 C-4 -1 -4 -1 0 0 Z " fill="#2A2A2A" transform="translate(750,707)"/>
<path d="M0 0 C0.99 0.33 1.98 0.66 3 1 C-0.465 3.97 -0.465 3.97 -4 7 C-3.67 5.35 -3.34 3.7 -3 2 C-2.01 2 -1.02 2 0 2 C0 1.34 0 0.68 0 0 Z " fill="#282627" transform="translate(364,502)"/>
<path d="M0 0 C5.875 3.75 5.875 3.75 7 6 C4.69 5.34 2.38 4.68 0 4 C0 2.68 0 1.36 0 0 Z " fill="#292929" transform="translate(583,318)"/>
<path d="M0 0 C0 0.99 0 1.98 0 3 C0.66 3.33 1.32 3.66 2 4 C1.01 4.33 0.02 4.66 -1 5 C-1 4.01 -1 3.02 -1 2 C-1.61875 2.20625 -2.2375 2.4125 -2.875 2.625 C-3.57625 2.74875 -4.2775 2.8725 -5 3 C-5.66 2.34 -6.32 1.68 -7 1 C-4.53721199 -0.231394 -2.7204945 -0.07159196 0 0 Z " fill="#181818" transform="translate(731,714)"/>
<path d="M0 0 C0.66 0.99 1.32 1.98 2 3 C-0.475 4.485 -0.475 4.485 -3 6 C-3.33 5.01 -3.66 4.02 -4 3 C-2.68 2.01 -1.36 1.02 0 0 Z " fill="#262525" transform="translate(739,710)"/>
<path d="M0 0 C-0.66 1.98 -1.32 3.96 -2 6 C-3.32 4.68 -4.64 3.36 -6 2 C-2.25 0 -2.25 0 0 0 Z " fill="#252524" transform="translate(665,502)"/>
</svg>
